<?xml version="1.0" encoding="UTF-8"?> <svg xmlns="http://www.w3.org/2000/svg" width="698" height="595" viewBox="0 0 698 595" fill="none"><path d="M506.955 594.748L100.123 438.216L452.93 159.948L506.955 594.748Z" fill="#0737D0"></path><path d="M357.525 490.432L296.43 237.764H334.855L377.506 496.969L357.525 490.432Z" fill="white" stroke="white" stroke-width="10"></path><path d="M441.025 238.947L454.507 251.638L364.378 367.146L489.947 412.002L479.546 425.462L349.373 386.376L286.167 467.38L258.431 441.614L316.965 376.645L179.847 335.473L206.812 310.861L334.983 356.646L441.025 238.947Z" fill="white" stroke="white" stroke-width="10"></path><path d="M428.072 440.687L352.063 126.614H399.868L452.93 448.814L428.072 440.687Z" fill="#D91744"></path><path d="M531.328 128.049L548.059 143.824L436.212 287.409L592.039 343.167L579.132 359.898L417.592 311.312L339.155 412.005L304.737 379.976L377.375 299.216L207.216 248.037L240.679 217.442L399.734 274.356L531.328 128.049Z" fill="#D91744"></path></svg> 