<?xml version="1.0" encoding="UTF-8"?> <svg xmlns="http://www.w3.org/2000/svg" xmlns:xlink="http://www.w3.org/1999/xlink" version="1.1" id="Calque_1" x="0px" y="0px" viewBox="0 0 150 18.2" style="enable-background:new 0 0 150 18.2;" xml:space="preserve"> <style type="text/css"> .st0{fill-rule:evenodd;clip-rule:evenodd;fill:#C0C0C0;} </style> <path class="st0" d="M67.9,9.1c0,1.9-0.4,3.6-1.1,5c-0.8,1.4-1.8,2.4-3,3.1c-1.3,0.7-2.7,1.1-4.3,1.1c-1.6,0-3-0.4-4.3-1.1 c-1.3-0.7-2.3-1.7-3-3.1c-0.7-1.4-1.1-3-1.1-5c0-2,0.4-3.6,1.1-5c0.8-1.4,1.8-2.4,3-3.1C56.4,0.3,57.8,0,59.4,0c1.6,0,3,0.4,4.3,1.1 c1.3,0.7,2.3,1.7,3,3.1C67.5,5.5,67.9,7.1,67.9,9.1z M63.5,9.1C63.5,8,63.4,7,63,6.2c-0.3-0.8-0.8-1.4-1.4-1.8 C61,4,60.3,3.7,59.4,3.7c-0.8,0-1.6,0.2-2.2,0.6c-0.6,0.4-1.1,1-1.4,1.8C55.5,7,55.3,8,55.3,9.1s0.2,2.1,0.5,2.9 c0.3,0.8,0.8,1.4,1.4,1.8c0.6,0.4,1.3,0.6,2.2,0.6c0.9,0,1.6-0.2,2.2-0.6c0.6-0.4,1.1-1,1.4-1.8C63.4,11.2,63.5,10.3,63.5,9.1z M4.5,18h-4.6l6-17.8h5.7l6,17.8h-4.6L8.8,4.7H8.6L4.5,18z M19.7,18V0.2h12.4v3.5H24v3.6h7.4v3.5H24v3.7h8.1V18H19.7z M35,0.2V18 h4.3v-6.1h2.2l3.2,6.1h4.7l-3.7-6.8c1-0.5,1.7-1.1,2.3-2c0.5-0.9,0.8-1.9,0.8-3.1c0-1.2-0.3-2.3-0.8-3.1c-0.5-0.9-1.3-1.6-2.2-2 c-1-0.5-2.1-0.7-3.4-0.7H35z M39.3,8.5h2.1c0.6,0,1.2-0.1,1.6-0.3c0.4-0.2,0.8-0.4,1-0.8c0.2-0.4,0.3-0.8,0.3-1.4 c0-0.5-0.1-1-0.3-1.4c-0.2-0.4-0.6-0.6-1-0.8c-0.4-0.2-1-0.3-1.6-0.3h-2.1V8.5z M114.4,14.1c0.8-1.4,1.1-3,1.1-5c0-2-0.4-3.6-1.1-5 c-0.8-1.4-1.8-2.4-3-3.1c-1.3-0.7-2.7-1.1-4.3-1.1c-1.6,0-3,0.4-4.3,1.1c-1.3,0.7-2.3,1.7-3,3.1c-0.7,1.4-1.1,3-1.1,5 c0,1.9,0.4,3.6,1.1,5c0.8,1.4,1.8,2.4,3,3.1c1.3,0.7,2.7,1.1,4.3,1.1c1.6,0,3-0.4,4.3-1.1C112.6,16.5,113.6,15.4,114.4,14.1z M110.6,6.2c0.3,0.8,0.5,1.8,0.5,2.9s-0.2,2.1-0.5,2.9c-0.3,0.8-0.8,1.4-1.4,1.8c-0.6,0.4-1.3,0.6-2.2,0.6c-0.8,0-1.6-0.2-2.2-0.6 c-0.6-0.4-1.1-1-1.4-1.8c-0.3-0.8-0.5-1.8-0.5-2.9s0.2-2.1,0.5-2.9c0.3-0.8,0.8-1.4,1.4-1.8c0.6-0.4,1.3-0.6,2.2-0.6 c0.9,0,1.6,0.2,2.2,0.6C109.9,4.8,110.3,5.4,110.6,6.2z M117.7,18V0.2h7.3c1.3,0,2.5,0.2,3.4,0.7c1,0.5,1.7,1.2,2.2,2 c0.5,0.9,0.8,1.9,0.8,3.1c0,1.2-0.3,2.3-0.8,3.1c-0.5,0.8-1.3,1.5-2.3,2l3.7,6.8h-4.7l-3.2-6.1H122V18H117.7z M124.1,8.5H122V3.7 h2.1c0.6,0,1.2,0.1,1.6,0.3c0.4,0.2,0.8,0.5,1,0.8c0.2,0.4,0.3,0.8,0.3,1.4c0,0.5-0.1,1-0.3,1.4c-0.2,0.3-0.6,0.6-1,0.8 C125.3,8.4,124.8,8.5,124.1,8.5z M134.3,0.2V18h4.3v-4.8l1.7-2.2l4.4,7h5.1l-6.4-9.8l6.3-7.9h-5l-5.9,7.5h-0.2V0.2H134.3z M81,0.3 h4.6l0,0l4.2,13.3h0.1L94,0.3h4.5l-5.8,17.8H87L83.3,7.2l-3.7,10.9h-5.7l-6-17.8h4.6l4.2,13.3h0.1L81,0.3L81,0.3L81,0.3z"></path> </svg> 