<?xml version="1.0" encoding="UTF-8"?> <svg xmlns="http://www.w3.org/2000/svg" width="645.158" height="133.641" viewBox="0 0 645.158 133.641"><g id="Groupe_5421" data-name="Groupe 5421" transform="translate(0)"><g id="Groupe_20" data-name="Groupe 20" transform="translate(0 0)"><g id="Groupe_13" data-name="Groupe 13"><g id="Groupe_9" data-name="Groupe 9" transform="translate(0 26.611)"><path id="Tracé_25" data-name="Tracé 25" d="M572.764,280.492H548.873l.132-4.283a13.011,13.011,0,0,1,.779-3.895h-.259c-3.506,5.84-12.334,10.128-21.551,10.128-13.891,0-24.925-10-24.925-28.3,0-25.834,17.915-40.5,36.48-40.5,8.567,0,15.965,4.283,17.654,10.125h.261a12.128,12.128,0,0,1,.52-3.892l1.168-4.288h23.884Zm-44.658-30.379c0,6.495,4.024,10.514,9.217,10.514,6.748,0,13.243-5.84,13.243-14.668,0-6.49-3.9-10.514-9.219-10.514C534.6,235.445,528.106,241.287,528.106,250.113Z" transform="translate(-503.049 -213.635)" fill="#2b4572"></path></g><g id="Groupe_10" data-name="Groupe 10" transform="translate(86.804)"><path id="Tracé_26" data-name="Tracé 26" d="M549.876,202.949h26.479l-10.641,66.986c-.782,5.06,1.945,6.228,4.54,6.228a20.627,20.627,0,0,0,7.531-1.818L574.411,295.9c-2.727,1.17-8.7,2.47-16.227,2.47-12.464,0-22.46-5.977-19.865-22.462Z" transform="translate(-537.906 -202.949)" fill="#2b4572"></path></g><g id="Groupe_11" data-name="Groupe 11" transform="translate(134.435)"><path id="Tracé_27" data-name="Tracé 27" d="M569,202.949h26.482L584.84,269.935c-.782,5.06,1.945,6.228,4.542,6.228a20.64,20.64,0,0,0,7.531-1.818L593.538,295.9c-2.727,1.17-8.7,2.47-16.229,2.47-12.464,0-22.46-5.977-19.863-22.462Z" transform="translate(-557.033 -202.949)" fill="#2b4572"></path></g><g id="Groupe_12" data-name="Groupe 12" transform="translate(181.313 26.611)"><path id="Tracé_28" data-name="Tracé 28" d="M648.167,243.232c0,22.071-18.568,39.21-41.548,39.21-18.692,0-30.762-12.466-30.762-29.6,0-22.067,18.692-39.2,41.672-39.2C636.089,213.635,648.167,226.1,648.167,243.232Zm-24.93,2.727c0-6.49-3.895-10.514-9.214-10.514-6.751,0-13.243,5.842-13.243,14.668,0,6.495,4.027,10.514,9.219,10.514C616.747,260.627,623.237,254.787,623.237,245.959Z" transform="translate(-575.857 -213.635)" fill="#2b4572"></path></g></g><g id="Groupe_18" data-name="Groupe 18" transform="translate(264.389)"><g id="Groupe_14" data-name="Groupe 14" transform="translate(173.182 9.085)"><path id="Tracé_29" data-name="Tracé 29" d="M718.614,206.6h-25.7L689.8,226.068h-7.79l-3.247,20.254h7.4l-3.507,22.2a33.437,33.437,0,0,0-.389,7.01c.65,12.6,10.126,17.4,21.419,17.4,8.83,0,15.577-1.561,18.695-2.859l3.377-21.162a26.378,26.378,0,0,1-10.257,2.47c-3.374,0-7.01-1.3-6.1-6.233l2.854-18.824h14.929l3.247-20.254H715.5Z" transform="translate(-678.76 -206.597)" fill="#6dea9e"></path></g><g id="Groupe_15" data-name="Groupe 15" transform="translate(228.723 26.611)"><path id="Tracé_30" data-name="Tracé 30" d="M742.735,213.635c-22.981,0-41.673,17.138-41.673,39.2,0,17.136,12.073,29.6,30.765,29.6,22.981,0,41.545-17.138,41.545-39.21C773.373,226.1,761.3,213.635,742.735,213.635ZM735.2,260.627c-5.192,0-9.217-4.019-9.217-10.514,0-8.826,6.49-14.668,13.243-14.668,5.32,0,9.212,4.024,9.212,10.514C748.443,254.787,741.953,260.627,735.2,260.627Z" transform="translate(-701.063 -213.635)" fill="#6dea9e"></path></g><g id="Groupe_16" data-name="Groupe 16" transform="translate(306.462 26.611)"><path id="Tracé_31" data-name="Tracé 31" d="M787.454,213.635c-8.442,0-18.046,5.713-22.071,11.814h-.259a8.213,8.213,0,0,0,1.168-4.024l.129-5.845H742.537L732.28,280.492h26.486l5.192-32.715c1.036-6.231,5.06-10.382,10.641-10.382,3.248,0,5.065,2.463,4.413,6.49l-5.837,36.607h26.481l6.363-40.5C808.873,221.942,800.7,213.635,787.454,213.635Z" transform="translate(-732.28 -213.635)" fill="#6dea9e"></path></g><g id="Groupe_17" data-name="Groupe 17"><path id="Tracé_32" data-name="Tracé 32" d="M675.86,229.56c-8.567,0-15.321,2.986-19.344,7.142h-.257a28.523,28.523,0,0,0,1.3-5.456l4.413-28.3H633.652a5.2,5.2,0,1,0,0,10.407h1.1a5.2,5.2,0,1,1,0,10.407H614.422a5.2,5.2,0,1,0,0,10.407h26.253a5.2,5.2,0,0,1-.887,10.317H614.551a5.2,5.2,0,0,0,0,10.409h14.63a5.2,5.2,0,1,1,0,10.407h-9.652a5.2,5.2,0,1,0,0,10.407h4.916a5.2,5.2,0,0,1,5.2,5.2,5.09,5.09,0,0,1-5.2,5.07h-8.776a5.2,5.2,0,0,0-5.2,5.2,5.443,5.443,0,0,0,5.5,5.177l28.608.05,1.168-4.283a12.283,12.283,0,0,0,.518-3.895h.259c1.689,5.84,9.219,10.128,17.786,10.128,18.565,0,36.348-14.673,36.348-40.507C700.653,239.556,689.623,229.56,675.86,229.56Zm-13.5,46.992c-5.193,0-9.216-4.019-9.216-10.514,0-8.825,6.492-14.668,13.243-14.668,5.319,0,9.217,4.024,9.217,10.514C675.6,270.712,669.106,276.552,662.357,276.552Z" transform="translate(-609.217 -202.949)" fill="#6dea9e"></path></g></g><g id="Groupe_19" data-name="Groupe 19" transform="translate(361.679 26.437)"><path id="Tracé_33" data-name="Tracé 33" d="M715.012,239.27a44.793,44.793,0,0,1-2.729,14.02h-37c.389,5.06,4.933,7.142,12.334,7.142a86.454,86.454,0,0,0,22.2-3.506l-3.506,21.81c-3.374,1.3-12.334,3.636-24.664,3.636-21.68,0-33.365-12.466-33.365-29.47,0-22.2,18.694-39.337,40.113-39.337C706.7,213.565,715.012,225.379,715.012,239.27Zm-30.118-5.583c-4.542,0-7.269,3.506-8.046,8.31h13.238C691.125,237.193,689.439,233.686,684.894,233.686Z" transform="translate(-648.285 -213.565)" fill="#6dea9e"></path></g></g><g id="Groupe_21" data-name="Groupe 21" transform="translate(228.616 106.33)"><path id="Tracé_34" data-name="Tracé 34" d="M630.52,272.958c-16.292,0-30.427-7.5-35.171-18.647a6.226,6.226,0,0,1,11.458-4.874c2.341,5.5,11.236,11.069,23.713,11.069s21.371-5.568,23.71-11.069a6.227,6.227,0,0,1,11.461,4.874C660.946,265.463,646.812,272.958,630.52,272.958Z" transform="translate(-594.852 -245.647)" fill="#6dea9e"></path></g><g id="Groupe_22" data-name="Groupe 22" transform="translate(383.799 4.93)"><path id="Tracé_35" data-name="Tracé 35" d="M663.389,218.93a6.227,6.227,0,0,1-1.554-12.255,49.432,49.432,0,0,1,24.786-.319,6.226,6.226,0,1,1-3.148,12.048,37.038,37.038,0,0,0-18.52.324A6.173,6.173,0,0,1,663.389,218.93Z" transform="translate(-657.167 -204.929)" fill="#2b4572"></path></g></g></svg> 