<?xml version="1.0" encoding="UTF-8"?> <svg xmlns="http://www.w3.org/2000/svg" width="300" height="256" viewBox="0 0 300 256" fill="none"><g clip-path="url(#clip0_213_1615)"><path d="M186.276 111.544C200.659 132.172 195.359 162.082 183.503 192.699C162.625 210.052 140.194 216.696 104.94 209.841C69.6863 202.987 52.9666 169.874 47.3617 152.376C41.7567 134.878 42.4915 92.2243 89.5884 75.6181C136.685 59.012 171.893 90.9154 186.276 111.544Z" stroke="#487CFF" stroke-width="6"></path><path d="M133.385 48.0881C81.9724 65.4213 97.3661 97.0677 121.351 133.966C146.476 167.684 176.158 188.683 209.738 178.811C243.318 168.939 281.866 139.05 247.135 115.986C212.405 92.9208 233.029 89.2063 228.266 67.1182C223.504 45.03 184.797 30.755 133.385 48.0881Z" stroke="#0737D0" stroke-width="4"></path><path d="M157.774 149.956C190.496 125.308 198.217 97.0295 176.341 65.1233C153.067 36.4663 124.201 20.8056 89.1 35.574C53.9985 50.3424 19.3927 74.5692 23.674 114.561C27.9553 154.553 39.6369 143.921 72.9211 164.127C90.2543 174.65 125.053 174.603 157.774 149.956Z" stroke="white" stroke-width="5"></path><path d="M26.2532 173.276C35.9445 229.726 74.2039 255.324 145.208 244.031C212.28 229.126 263.63 199.772 271.924 145.597C280.219 91.4214 272.916 32.7271 204.976 16.4912C137.037 0.255277 143.43 21.4092 80.7814 54.0813C48.1561 71.0959 16.562 116.827 26.2532 173.276Z" stroke="#FCB73D" stroke-width="8" stroke-dasharray="22 22"></path></g><defs><clipPath id="clip0_213_1615"><rect width="299.146" height="256" fill="white"></rect></clipPath></defs></svg> 