<?xml version="1.0" encoding="UTF-8"?> <svg xmlns="http://www.w3.org/2000/svg" width="300" height="256" viewBox="0 0 300 256" fill="none"><g clip-path="url(#clip0_213_1670)"><path d="M74.2397 21.4161C65.4714 30.0872 53.6663 49.5013 68.6718 69.6957C83.6773 89.89 105.935 86.0745 114.266 81.7739C122.597 77.4732 137.534 66.5036 136.32 49.5083" stroke="white" stroke-width="15"></path><path d="M104.661 6.93186C108.632 3.02253 116 2.82138 123.938 3.95977C129.308 7.56448 132.254 11.9625 132.81 19.6318C133.367 27.301 126.601 32.2452 122.826 34.1826C119.052 36.12 108.965 37.8331 102.156 28.715C95.3464 19.5969 100.69 10.8412 104.661 6.93186Z" fill="#FCB73D"></path><path d="M83.2262 106.179C96.6137 86.5653 126.736 80.0273 160.204 78.7197C184.971 89.8343 200.367 106.179 208.399 138.215C216.432 170.252 192.334 196.404 178.277 207.518C164.221 218.633 124.058 233.67 89.2506 200.326C54.4431 166.983 69.8387 125.793 83.2262 106.179Z" fill="#0737D0"></path><rect x="34.207" y="161.826" width="231" height="99" transform="rotate(-3.48199 34.207 161.826)" fill="#487CFF"></rect><path d="M7.65883 211.443L3.69565 173.029L279.505 168.233L277.897 233.936L7.65883 211.443Z" fill="#FCB73D"></path></g><defs><clipPath id="clip0_213_1670"><rect width="299.146" height="256" fill="white"></rect></clipPath></defs></svg> 