<?xml version="1.0" encoding="UTF-8"?> <svg xmlns="http://www.w3.org/2000/svg" width="300" height="256" viewBox="0 0 300 256" fill="none"><path d="M7.95723 191.139C9.27712 189.205 12.2469 188.561 15.5466 188.432C17.9884 189.527 19.5063 191.139 20.2982 194.297C21.0902 197.456 18.7144 200.034 17.3285 201.13C15.9426 202.226 11.9829 203.708 8.55118 200.421C5.11946 197.134 6.63733 193.073 7.95723 191.139Z" stroke="white" stroke-width="6"></path><path d="M246.032 198.487C250.934 191.305 261.965 188.91 274.221 188.432C283.291 192.502 288.928 198.487 291.87 210.219C294.811 221.95 285.987 231.527 280.839 235.597C275.692 239.667 260.984 245.174 248.238 232.964C235.492 220.753 241.129 205.67 246.032 198.487Z" fill="#E2EAFF"></path><path d="M105.042 112.027C111.83 102.082 127.103 98.7665 144.073 98.1035C156.631 103.739 164.437 112.027 168.51 128.27C172.583 144.514 160.364 157.774 153.237 163.41C146.109 169.045 125.745 176.67 108.096 159.763C90.4474 142.857 98.2536 121.972 105.042 112.027Z" fill="#0737D0"></path><path d="M50.8253 84.5137C1.47943 128.973 34.1549 157.052 79.0359 186.857C123.652 212.535 167.209 221.707 200.143 194.296C233.077 166.885 261.867 114.569 211.635 105.53C161.402 96.4901 182.771 82.2942 166.686 59.7895C150.601 37.2847 100.171 40.0541 50.8253 84.5137Z" stroke="#FCB73D" stroke-width="8"></path></svg> 