<?xml version="1.0" encoding="UTF-8"?> <svg xmlns="http://www.w3.org/2000/svg" width="300" height="256" viewBox="0 0 300 256" fill="none"><path d="M63.4662 75.309C65.6346 72.2702 70.5135 71.2573 75.9345 71.0547C79.946 72.7767 82.4397 75.309 83.7407 80.2723C85.0418 85.2357 81.1387 89.2874 78.8618 91.0094C76.585 92.7313 70.0798 95.0611 64.442 89.8951C58.8042 84.7292 61.2978 78.3478 63.4662 75.309Z" stroke="#0737D0" stroke-width="4"></path><path d="M123.576 108.11C128.478 100.928 139.509 98.5335 151.765 98.0547C160.835 102.125 166.472 108.11 169.414 119.842C172.355 131.573 163.531 141.15 158.383 145.22C153.236 149.29 138.528 154.797 125.782 142.587C113.035 130.376 118.673 115.293 123.576 108.11Z" fill="white"></path><path d="M222.576 52.1103C227.478 44.9277 238.509 42.5335 250.765 42.0547C259.835 46.1248 265.472 52.1103 268.414 63.8418C271.355 75.5734 262.531 85.1502 257.383 89.2203C252.236 93.2904 237.528 98.7971 224.782 86.5867C212.035 74.3763 217.673 59.2929 222.576 52.1103Z" fill="#0737D0"></path><path d="M16 101.952C19.1824 79.4483 44.7226 50.2909 66.6113 44.1726C88.5 38.0543 130.274 30.0273 137.637 63.2908C145 96.5543 66.6113 117.513 66.6113 153.784C66.6113 190.054 113 239.054 154.224 237.054C195.448 235.054 173.129 44.1723 218.02 25.0544C262.91 5.93644 279.5 32.5 288 63.2908" stroke="#FCB73D" stroke-width="9"></path></svg> 