<?xml version="1.0" encoding="UTF-8"?> <svg xmlns="http://www.w3.org/2000/svg" width="300" height="256" viewBox="0 0 300 256" fill="none"><path d="M65.2135 50.0333C68.8053 44.7709 76.8868 43.0168 85.8663 42.666C92.5111 45.648 96.6417 50.0333 98.7968 58.6284C100.952 67.2235 94.4866 74.2399 90.7152 77.2219C86.9439 80.2039 76.1685 84.2383 66.8298 75.2924C57.4912 66.3464 61.6217 55.2956 65.2135 50.0333Z" fill="#0737D0"></path><path d="M61.2317 130.945C59.4934 124.851 63.2938 117.556 68.7383 110.468C75.2456 107.284 81.2264 106.916 89.169 110.737C97.1116 114.557 98.363 123.964 98.2435 128.745C98.1241 133.525 94.3534 144.331 81.5724 145.779C68.7913 147.228 62.97 137.039 61.2317 130.945Z" stroke="#D1DEFF" stroke-width="5"></path><path d="M65.2135 185.092C68.8053 180.011 76.8868 178.317 85.8663 177.979C92.5111 180.858 96.6417 185.092 98.7968 193.39C100.952 201.689 94.4866 208.464 90.7152 211.343C86.9439 214.222 76.1685 218.117 66.8298 209.48C57.4912 200.842 61.6217 190.173 65.2135 185.092Z" fill="#0737D0"></path><path d="M133.527 50.0333C137.119 44.7709 145.2 43.0168 154.18 42.666C160.825 45.648 164.955 50.0333 167.11 58.6284C169.265 67.2235 162.8 74.2399 159.029 77.2219C155.257 80.2039 144.482 84.2383 135.143 75.2924C125.805 66.3464 129.935 55.2956 133.527 50.0333Z" fill="white"></path><path d="M133.527 115.719C137.119 110.456 145.2 108.702 154.18 108.352C160.825 111.334 164.955 115.719 167.11 124.314C169.265 132.909 162.8 139.925 159.029 142.907C155.257 145.889 144.482 149.924 135.143 140.978C125.805 132.032 129.935 120.981 133.527 115.719Z" fill="#E2EAFF"></path><path d="M134.549 208.753C130.071 204.27 129.852 196.047 131.17 187.207C135.314 181.265 140.364 178.039 149.162 177.523C157.961 177.007 163.622 184.623 165.838 188.861C168.055 193.098 170.004 204.375 159.534 211.847C149.063 219.318 139.028 213.237 134.549 208.753Z" stroke="#0737D0" stroke-width="4"></path><path d="M238.276 59.2186C239.539 65.4286 235.188 72.4085 229.212 79.0561C222.479 81.7279 216.488 81.6337 208.863 77.2118C201.239 72.79 200.717 63.3146 201.205 58.5574C201.693 53.8002 206.286 43.3181 219.14 42.8596C231.995 42.4012 237.013 53.0086 238.276 59.2186Z" fill="white" stroke="#487CFF" stroke-width="4"></path><path d="M222.108 108.226C228.429 108.674 233.987 114.738 238.789 122.277C239.557 129.48 237.86 135.227 231.555 141.386C225.251 147.545 215.983 145.507 211.53 143.762C207.078 142.016 198.212 134.781 201.217 122.274C204.222 109.767 215.787 107.777 222.108 108.226Z" fill="#0737D0"></path><path d="M215.912 170.889L221.701 169.838L225.657 211.68L215.657 212.204L215.912 170.889Z" fill="#FCB73D" stroke="#FCB73D" stroke-width="3"></path></svg> 