<?xml version="1.0" encoding="UTF-8"?> <svg xmlns="http://www.w3.org/2000/svg" xmlns:xlink="http://www.w3.org/1999/xlink" version="1.1" id="Layer_2" x="0px" y="0px" viewBox="0 0 504.6 500" style="enable-background:new 0 0 504.6 500;" xml:space="preserve"> <style type="text/css"> .st0{fill:#FFFFFF;} .st1{fill:none;stroke:#FFFFFF;stroke-width:5;stroke-miterlimit:10;} </style> <ellipse transform="matrix(0.1602 -0.9871 0.9871 0.1602 -35.5575 458.6392)" class="st0" cx="251.8" cy="250.2" rx="46.6" ry="46.6"></ellipse> <path class="st1" d="M251.8,155.4c62.6,0,120.8,9,164.7,24.1c52.8,18.2,85.3,45.8,85.3,70.7c0,26-34.4,55.3-91.2,74.1 c-42.9,14.2-99.4,21.6-158.8,21.6c-61,0-118.7-7-162-21.8c-54.9-18.8-88-48.4-88-74c0-24.8,31-52.1,83.1-70.3 C128.9,164.6,188.5,155.4,251.8,155.4L251.8,155.4z"></path> <path class="st1" d="M169.2,203.1c31.3-54.2,68.1-100.2,103.1-130.6c42.2-36.7,82.3-51.1,103.9-38.6c22.5,13,30.7,57.5,18.7,116 c-9.1,44.3-30.9,96.9-60.6,148.4c-30.4,52.8-65.3,99.3-99.8,129.5c-43.7,38.2-85.9,52-108,39.2c-21.5-12.4-29.7-52.9-19.4-107.1 C115.8,314.1,137.6,257.8,169.2,203.1L169.2,203.1z"></path> <path class="st1" d="M169.3,298.4c-31.4-54.2-52.7-109-61.6-154.6C96.9,89,104.5,47.1,126.1,34.6c22.5-13,65.1,2.1,109.8,41.8 c33.8,30,68.5,75.2,98.3,126.6c30.5,52.8,53.4,106.2,62.3,151.1c11.3,56.9,2.1,100.4-19.9,113.2c-21.4,12.4-60.7-0.7-102.5-36.7 C238.8,400.1,201,353.1,169.3,298.4L169.3,298.4z"></path> </svg> 