<?xml version="1.0" encoding="UTF-8"?> <svg xmlns="http://www.w3.org/2000/svg" width="433" height="327" viewBox="0 0 433 327" fill="none"><path d="M0 220L8.39147 164.82L433 118L426.287 144.754L0 220Z" fill="#FCB73D"></path><path fill-rule="evenodd" clip-rule="evenodd" d="M233.292 39.1878C238.682 66.0266 241.269 103.632 238.669 132.109C235.011 172.18 223.608 207.862 210.682 238.989C213.282 256.357 216.318 269.596 219.517 276.836C223.886 286.723 227.772 289.458 229.635 289.998C230.813 290.339 233.674 290.41 238.802 285.214C243.801 280.149 249.353 271.531 254.978 259.315C258.544 251.569 262.05 242.576 265.412 232.468C256.497 187.179 252.621 138.735 252.98 98.8719C253.193 75.2898 254.889 54.3822 258.024 38.7461C259.583 30.9678 261.574 24.1014 264.131 18.762C266.488 13.8407 270.275 8.20494 276.544 6.28417C280.103 5.19376 283.775 5.58895 286.984 7.41611C289.887 9.06938 291.88 11.5824 293.263 13.9041C295.998 18.4947 297.798 24.8247 299.079 31.6639C301.694 45.6267 302.739 65.1785 302.528 86.6945C302.103 129.774 296.605 182.771 287.138 218.768L287.121 218.833L287.103 218.897C285.691 223.933 284.236 228.796 282.742 233.474C284.104 240.12 285.579 246.682 287.169 253.12C290.236 265.539 293.416 274.488 296.525 280.722C299.686 287.063 302.435 289.909 304.242 291.058C305.614 291.931 306.585 291.97 307.875 291.523C309.615 290.921 312.047 289.289 315.019 286.056C320.94 279.616 326.749 269.343 331.626 258.886C331.674 258.783 331.721 258.681 331.769 258.578C330.644 255.163 329.591 251.682 328.607 248.16C322.495 226.294 318.743 201.777 317.243 179.151C315.749 156.624 316.449 135.412 319.545 120.275C321.058 112.882 323.335 105.914 326.978 101.045C328.867 98.5207 331.489 96.0719 335.041 94.8018C338.778 93.4658 342.594 93.775 346.036 95.1864C357.384 99.8396 362.535 112.379 365.088 124.181C367.794 136.688 368.352 151.957 367.817 166.979C366.751 196.911 361.227 228.3 357.524 239.364C356.125 243.542 353.437 250.955 349.811 259.352C354.81 272.975 360.772 284.038 367.476 291.248L355.152 302.611C349.352 296.373 344.326 288.396 339.999 279.348C336.258 285.967 332.018 292.334 327.408 297.349C323.557 301.538 318.877 305.42 313.393 307.32C307.46 309.375 301.095 308.904 295.198 305.152C289.736 301.676 285.28 295.78 281.481 288.16C278.128 281.435 275.014 272.814 272.133 262.066C271.507 263.504 270.878 264.911 270.245 266.285C264.27 279.261 257.75 289.877 250.782 296.937C243.943 303.867 234.942 308.955 224.94 306.056C215.623 303.355 209.012 294.592 204.143 283.572C202.138 279.033 200.312 273.087 198.657 266.087C197.168 269.266 195.683 272.387 194.212 275.45C189.41 285.45 184.704 292.909 180.013 298.137C175.365 303.317 170.136 306.958 164.249 307.903C158.047 308.899 152.789 306.651 148.908 303.438C145.19 300.359 142.457 296.216 140.494 292.307C139.883 291.09 139.024 289.507 137.965 287.557C135.065 282.215 130.67 274.121 125.798 263.266C124.608 265 123.373 266.752 122.094 268.531C116.678 276.062 110.117 284.504 102.508 294.294C95.1248 303.794 86.7551 314.563 77.4888 327L64 317.034C73.8731 303.783 82.2359 293.038 89.4896 283.718C96.7942 274.332 102.974 266.391 108.439 258.793C112.091 253.715 115.27 248.986 118.047 244.348C107.349 215.599 96.845 174.661 95.9395 121.459C95.5148 96.5088 97.0822 78.7369 100.069 66.7278C101.558 60.7366 103.513 55.7099 106.098 51.8667C108.707 47.9881 112.408 44.6993 117.386 43.708C122.371 42.7152 126.824 44.3873 130.169 46.6422C133.479 48.8726 136.3 52.0342 138.644 55.4126C143.354 62.2019 147.175 71.3712 149.457 80.9127C149.546 81.2854 149.635 81.6595 149.725 82.0352C153.333 97.1118 157.536 114.676 158.311 136.929C159.107 159.783 156.292 187.286 145.988 222.343C143.495 230.826 140.381 238.364 136.554 245.657C142.953 261.579 149.137 272.976 152.922 279.95C153.998 281.932 154.879 283.557 155.517 284.827C156.913 287.608 158.38 289.528 159.647 290.578C160.753 291.493 161.268 291.441 161.575 291.392C162.196 291.292 164.21 290.647 167.488 286.994C170.723 283.389 174.625 277.468 179.06 268.234C183.849 258.263 188.721 247.787 193.394 236.796C192.915 233.364 192.458 229.841 192.024 226.246C189.023 201.415 186.962 172.055 186.011 143.124C185.06 114.201 185.214 85.543 186.679 62.1287C187.41 50.4312 188.477 39.9086 189.93 31.2534C191.336 22.8739 193.243 15.3213 196.091 10.2157C198.371 6.12874 202.228 0.916659 208.542 0.106383C215.472 -0.782859 220.044 4.10278 222.3 7.30545C224.849 10.9225 226.907 15.7401 228.621 20.9219C230.375 26.2247 231.936 32.4368 233.292 39.1878ZM206.426 202.602C204.704 183.644 203.47 163.032 202.798 142.576C201.859 114.007 202.02 85.9046 203.442 63.1685C204.154 51.7909 205.173 41.8907 206.496 34.0104C207.65 27.1349 208.938 22.4343 210.123 19.6776C210.917 21.3223 211.779 23.4666 212.668 26.1535C214.149 30.6309 215.554 36.1525 216.822 42.4679C221.929 67.8948 224.381 103.88 221.942 130.595C219.585 156.416 213.821 180.401 206.426 202.602ZM212.311 16.1156C212.311 16.1161 212.303 16.1234 212.287 16.136C212.303 16.1215 212.311 16.1152 212.311 16.1156ZM207.943 16.141C207.859 16.0771 207.817 16.0328 207.817 16.0265C207.817 16.0203 207.859 16.0522 207.943 16.141ZM128.325 222.501C128.868 220.917 129.382 219.301 129.868 217.645C139.719 184.13 142.253 158.41 141.525 137.509C140.809 116.941 136.937 100.755 133.318 85.6233C133.251 85.344 133.184 85.0651 133.118 84.7865C131.2 76.7664 128.093 69.6287 124.825 64.9196C123.18 62.5487 121.75 61.1632 120.755 60.4929C120.711 60.4629 120.668 60.4352 120.628 60.4096C120.471 60.5909 120.278 60.8391 120.053 61.1746C118.964 62.7932 117.612 65.7631 116.372 70.7478C113.9 80.6904 112.318 96.7867 112.733 121.175C113.443 162.89 120.262 196.59 128.325 222.501ZM121.104 59.9601C121.104 59.9613 121.091 59.9704 121.065 59.9843C121.091 59.9659 121.104 59.959 121.104 59.9601ZM120.098 60.1269C120.075 60.122 120.063 60.1179 120.063 60.1171C120.063 60.1162 120.074 60.1187 120.098 60.1269ZM341.998 232.777C345.068 222.476 350.043 194.142 351.031 166.387C351.546 151.932 350.949 138.245 348.669 127.703C346.451 117.453 343.209 112.72 340.435 111.053C339.055 112.907 337.374 116.911 336.003 123.613C333.326 136.699 332.557 156.254 334.002 178.049C335.192 195.993 337.858 215.074 341.998 232.777ZM275.817 192.309C281.851 160.197 285.399 120.371 285.732 86.5305C285.941 65.398 284.886 47.1096 282.568 34.7304C281.734 30.2765 280.806 26.993 279.915 24.7428C279.719 25.0998 279.511 25.504 279.292 25.9613C277.584 29.5266 275.927 34.8772 274.495 42.0206C271.646 56.2281 269.983 75.9831 269.776 99.0219C269.522 127.182 271.445 159.758 275.817 192.309Z" fill="#0737D0"></path></svg> 