<?xml version="1.0" encoding="UTF-8"?> <svg xmlns="http://www.w3.org/2000/svg" width="363" height="270" viewBox="0 0 363 270" fill="none"><path d="M239.295 270L207.809 232.9L266.809 178.869L255.778 162.825L125.649 248.596L95.5152 218.823L315.75 49.0558L298.929 24.7979L23.3716 215.044L0 172.852L203.54 34.825L166.306 12.5339L28.6968 105.208L22.0192 96.9161L165.926 0L223.277 34.2851L14.3695 175.938L27.3444 199.386L301.929 9.79574L330.542 51.1384L111.829 219.749L127.128 234.866L258.948 148.016L281.136 180.334L222.812 233.748L240.479 254.574L355.139 153.454L363 160.858L239.295 270Z" fill="#E9E9F1"></path></svg> 