<?xml version="1.0" encoding="UTF-8"?> <svg xmlns="http://www.w3.org/2000/svg" xmlns:xlink="http://www.w3.org/1999/xlink" version="1.1" id="Calque_1" x="0px" y="0px" viewBox="0 0 106.2 84.2" style="enable-background:new 0 0 106.2 84.2;" xml:space="preserve"> <style type="text/css"> .st0{fill-rule:evenodd;clip-rule:evenodd;fill:#FFFFFF;} .st1{fill:#FFFFFF;} </style> <path class="st0" d="M102.6,22.2c2.3,2.3,3.6,5.5,3.6,8.8s-1.3,6.4-3.6,8.8L61.8,80.6c-2.4,2.3-5.5,3.6-8.8,3.6s-6.4-1.3-8.8-3.6 L3.6,40c-4.8-4.8-4.8-12.6,0-17.5l18-18.4c2.4-2.4,5.6-3.8,8.9-3.8h45.1c3.3,0,6.4,1.3,8.8,3.7L102.6,22.2z M98,35.2 c2.3-2.4,2.3-6.1,0-8.4L79.8,8.5c-1.1-1.1-2.6-1.7-4.2-1.7H30.5c-1.6,0-3.1,0.7-4.2,1.8L8.2,27c-2.3,2.3-2.3,6.1,0,8.4l40.6,40.5 c1.1,1.2,2.6,1.8,4.2,1.8c1.6,0,3.1-0.6,4.2-1.8L98,35.1V35.2z"></path> <circle class="st1" cx="32.5" cy="38.5" r="4.7"></circle> <circle class="st1" cx="48.2" cy="36.6" r="6.6"></circle> <circle class="st1" cx="68.9" cy="33.7" r="9.5"></circle> </svg> 