<?xml version="1.0" encoding="UTF-8"?> <svg xmlns="http://www.w3.org/2000/svg" width="97" height="97" viewBox="0 0 97 97" fill="none"><circle cx="49" cy="54" r="34" fill="white"></circle><circle cx="48.5" cy="48.5" r="48.5" fill="white"></circle><path d="M41.6108 32.702C45.6647 26.4863 54.7861 24.4144 64.921 24C72.4209 27.5222 77.0829 32.702 79.5153 42.8543C81.9477 53.0066 74.6505 61.2942 70.3939 64.8164C66.1372 68.3386 53.9753 73.104 43.435 62.5373C32.8947 51.9706 37.5568 38.9177 41.6108 32.702Z" fill="#D91744"></path><path d="M60.1371 49.1395L57.1582 44.5224L16.8197 67.845L22.9793 76.7752L60.1371 49.1395Z" fill="#0737D0"></path><path d="M44.6071 40.8637L43.1831 38.6565L23.8994 49.8058L26.844 54.0748L44.6071 40.8637Z" fill="#487CFF"></path></svg> 