<?xml version="1.0" encoding="UTF-8"?> <svg xmlns="http://www.w3.org/2000/svg" xmlns:xlink="http://www.w3.org/1999/xlink" version="1.1" id="Laag_1" x="0px" y="0px" viewBox="0 0 210 170" width="210" height="170" style="enable-background:new 0 0 210 170;" xml:space="preserve"> <style type="text/css"> .st0{fill:#143C2C;} .st1{fill:#4AC6E9;} </style> <g> <path class="st0" d="M24.3,155.4c-0.5-0.7-1.2-1.2-2.1-1.7v-0.2c0.6-0.4,1.1-0.9,1.5-1.5c0.5-0.8,0.7-1.6,0.7-2.6 c0-1.6-0.6-2.9-1.6-3.7c-1.3-1.2-3.2-1.7-5.3-1.7l-13.4,0v2.7l2,0.4v4.9h0v13.1h11.9c2.1,0,4.1-0.7,5.5-1.9 c1.3-1.1,2.1-2.7,2.1-4.6C25.5,157.5,25.1,156.4,24.3,155.4 M10.5,147.6h6.8c0.8,0,1.5,0.3,1.9,0.7c0.5,0.4,0.7,1,0.7,1.7 c0,0.6-0.2,1.2-0.6,1.7c-0.4,0.5-1,0.7-1.8,0.7h-7V147.6z M20.3,160.8c-0.6,0.6-1.4,1-2.5,1h-7.3v-6.1h7.4c1,0,1.9,0.3,2.5,0.9 c0.5,0.5,0.7,1.2,0.7,2.1C21.1,159.6,20.8,160.3,20.3,160.8"></path> <polygon class="st0" points="46.4,161.7 46.4,165.2 29.3,165.2 29.3,144.1 33.9,144.1 33.9,161.7 "></polygon> <path class="st0" d="M49.2,144.1h4.6v12.1c0,1.9,0.5,3.3,1.4,4.4c0.9,1,2.2,1.5,3.9,1.5c1.7,0,3.1-0.5,3.9-1.4c1-1,1.4-2.4,1.4-4.4 v-12.1h4.5v12c0,3-1,5.5-2.7,7c-1.7,1.6-4.2,2.5-7.2,2.5c-2.9,0-5.3-0.8-7-2.4c-1.8-1.6-2.8-4-2.8-7.2V144.1z"></path> <polygon class="st0" points="73.7,144.1 91,144.1 91,147.6 78.2,147.6 78.2,152.4 89.6,152.4 89.6,155.9 78.2,155.9 78.2,161.6 91.5,161.6 91.5,165.2 73.7,165.2 "></polygon> <path class="st0" d="M107.7,154v2.7l2,0.4v4.6c-1,0.2-2,0.3-3.2,0.3c-2.5,0-4.8-0.9-6.1-2.4c-1.2-1.3-1.8-3-1.8-5 c0-2.3,0.7-4.2,2.1-5.4c1.3-1.3,3.5-2,5.8-2c2.1,0,4,0.4,6.2,1.2l1.3-3.1c-2.5-1.3-5-1.7-7.8-1.7c-3.5,0-6.3,0.9-8.6,2.7 c-2.3,1.8-3.6,4.5-3.6,8.2c0,3.3,1.2,5.9,3.1,7.7c2.3,2.2,5.5,3.2,9.1,3.2c2.8,0,5.4-0.5,7.8-1.8h0V154H107.7z"></path> <path class="st0" d="M129.9,144.1c2.6,0,4.6,0.7,6.2,2.1c1.3,1.2,2.2,3,2.2,5.3c0,1.8-0.7,3.6-1.9,4.9c-0.8,0.8-2,1.6-3.4,2 l1.6,2.1c0.5,0.6,1,1.1,1.6,1.4c0.6,0.3,1.3,0.5,2.1,0.6l-0.2,3.1c-1.8,0-3.1-0.2-4.2-0.7c-1.1-0.6-2-1.5-3.1-2.9l-2.1-2.9h-5.8 v6.3h-4.5v-21.1H129.9z M133.7,151.4c0-1.2-0.4-2.2-1.1-2.8c-0.7-0.7-1.8-1.1-3-1.1h-6.8v7.8h6.9c1.2,0,2.3-0.4,3-1.1 C133.4,153.6,133.7,152.7,133.7,151.4"></path> <polygon class="st0" points="142.2,144.1 159.6,144.1 159.6,147.6 146.7,147.6 146.7,152.4 158.2,152.4 158.2,155.9 146.7,155.9 146.7,161.6 160,161.6 160,165.2 142.2,165.2 "></polygon> <polygon class="st0" points="164,144.1 181.4,144.1 181.4,147.6 168.6,147.6 168.6,152.4 180,152.4 180,155.9 168.6,155.9 168.6,161.6 181.9,161.6 181.9,165.2 164,165.2 "></polygon> <polygon class="st0" points="199.7,144.1 199.7,146.8 201.7,147.2 201.7,158.6 190.1,144.1 185.9,144.1 185.9,165.2 190.2,165.2 190.2,150.5 201.8,165.2 206,165.2 206,144.1 "></polygon> <path class="st1" d="M142.8,19.3c4.2,0,7.7-3.4,7.7-7.7c0-4.2-3.4-7.7-7.7-7.7c-4.2,0-7.7,3.4-7.7,7.7 C135.1,15.9,138.6,19.3,142.8,19.3 M142.8,8.9c1.5,0,2.8,1.2,2.8,2.8c0,1.5-1.2,2.8-2.8,2.8c-1.5,0-2.8-1.2-2.8-2.8 C140,10.1,141.3,8.9,142.8,8.9"></path> <path class="st1" d="M155.6,36.7l-49.8-16.8c-0.7-0.3-1.6-0.1-2.2,0.3c-0.6,0.5-1,1.2-1,2l0,74.2c-8.1,0.4-15.9,2.9-22.7,7.4 l-10.2-5.9V41.5h24.4c1.4,0,2.5-1.1,2.5-2.5c0-1.4-1.1-2.5-2.5-2.5H67.2c-1.4,0-2.5,1.1-2.5,2.5v60.3c0,0.9,0.5,1.7,1.2,2.1 l37.8,21.8c0.4,0.2,0.8,0.3,1.2,0.3c0.4,0,0.8-0.1,1.2-0.3l37.8-21.8c0.8-0.4,1.2-1.2,1.2-2.1V54.2c0-1.4-1.1-2.5-2.5-2.5 c-1.4,0-2.5,1.1-2.5,2.5v43.7l-10.3,5.9c-6.8-4.4-14.5-7-22.6-7.4v-39l48.1-16.1c1-0.3,1.7-1.3,1.7-2.3 C157.3,38,156.6,37,155.6,36.7 M105,118.3l-20.3-11.7c6.1-3.5,13.1-5.3,20.2-5.3c7.2,0,14.1,1.9,20.3,5.4L105,118.3z M107.5,52.3 V25.6L147.1,39L107.5,52.3z"></path> </g> </svg> 