<?xml version="1.0" encoding="UTF-8"?> <svg xmlns="http://www.w3.org/2000/svg" viewBox="0 0 882.7 166.7"><style type="text/css"> .st0{fill:#233064;} .st1{fill:#289AD6;} </style><g><path class="st0" d="M239.4,72.9c2.1-2,3.9-4.1,6-5.8c10-8.5,21.5-12.9,34.8-12.6c15.8,0.3,28.9,6.3,39.2,18.2 c8.1,9.4,11.7,20.5,11.7,32.9c-0.1,12.1-3.8,22.8-11.5,32c-8.6,10.1-19.5,16.1-32.7,17.8c-15.8,2.1-29.8-2-41.9-12.4 c-1-0.9-2-1.9-3.1-2.9c5-7.9,8.1-16.3,8.3-25.7c-1.5,7-4,13.6-8.2,19.5c-8.7,12.2-20.6,19.4-35.4,21.5 c-16.3,2.2-30.8-2.1-42.9-13.4c-9.5-8.8-14.5-19.7-15.7-32.7c-2.1-22.7,12.5-45.7,35.8-52.6c19.7-5.8,37.4-1.4,52.6,12.7 C237.3,70.5,238.3,71.7,239.4,72.9z M197,76c-3.9-0.1-9.2,1.9-14,5.6c-14.2,11.1-15,33.8-1.6,45.9c10.7,9.7,26.9,9.1,36.7-1.3 c10.4-11,11.1-28.2,1.8-40C214.7,79.6,207.8,76.1,197,76z M279.6,76c-6.5-0.1-12.1,2.1-17,6.2c-14.2,12-13.8,34.9,0.6,46.5 c10.2,8.2,25,7.4,34.4-1.7c9.2-8.9,12-23.5,6.1-35.3C298.8,81.9,290.8,76.4,279.6,76z"></path><path class="st0" d="M138.2,43.3c-5.8,5.9-11.6,11.8-17.5,17.8c-0.6-0.7-1.1-1.1-1.5-1.7c-7.1-9.1-16.2-14.7-27.7-16.6 c-22.2-3.7-43,7.7-50.9,27.5c-6.6,16.6-3.6,32,8,45.6c7.1,8.3,16.4,13.2,27.2,14.9c14,2.2,26.4-1.9,37.3-10.8 c0.5-0.4,1.1-1.1,1.1-1.7c0.1-3.8,0.1-7.6,0.1-11.7c-9.1,0-18.1,0-26.9,0c-0.6-2-0.7-16.3-0.3-21.9c1.6-0.5,48.4-0.7,52-0.2 c0.1,0.6,0.2,1.2,0.2,1.8c0,13.6,0,27.2,0,40.8c0,1.3-0.3,2.3-1.2,3.3c-11.5,13.3-25.8,21.9-43.2,24.6 c-22.3,3.5-42.4-1.7-59.7-16.5c-12.9-11-20.7-25-23.1-41.9c-2.9-20.5,2.4-38.7,15.8-54.3c11.1-12.9,25.4-20.9,42.2-23.7 c14.4-2.4,28.5-1.2,42,4.8c9.7,4.4,18.1,10.5,25.1,18.5C137.5,42.3,137.8,42.8,138.2,43.3z"></path><path class="st0" d="M432.1,153.4c-8.3,0-16.3,0-24.6,0c-0.1-1.4-0.2-2.7-0.3-4.3c-0.8,0.5-1.4,0.8-1.9,1.2 c-5.3,3.6-11.2,5.2-17.6,5.5c-22.1,1.1-40.2-13.9-46.1-34.4c-5.5-19-2-36.4,11.2-51.4c6.9-7.8,15.5-13.1,25.9-15 c10.3-1.8,20-0.2,28.9,5.5c0.3,0.2,0.5,0.3,0.8,0.5c0.1,0.1,0.3,0.1,1,0.4c-2.5-2.5-1.8-5.2-1.8-7.7c0-12,0-24,0-36 c0-0.9,0-1.7,0-2.8c8.2,0,16.3,0,24.5,0C432.1,61.1,432.1,107.1,432.1,153.4z M407.8,104.5c0-7.1,0-14.2,0-21.3 c0-1.5-0.4-2.3-1.7-3c-3.1-1.7-6.3-3-9.8-3.8c-10.6-2.4-21.4,1.3-27.3,10.1c-6.9,10.3-7.4,21.4-2.6,32.7 c4.1,9.7,11.9,14.8,22.4,15.5c6.5,0.4,12.2-1.8,17.4-5.8c1.2-0.9,1.7-1.9,1.6-3.4C407.7,118.4,407.8,111.5,407.8,104.5z"></path></g><path class="st1" d="M648,95.7c0.7-6.2-2-14.6-8-25.5c0.8-0.8,1.5-1.7,2.4-2.4c12-10.6,26.1-14.9,41.9-12.9 c12.6,1.6,23.4,7.1,31.9,16.5c9.3,10.2,13.2,22.4,12.7,36.1c-0.8,22.9-17.2,43.4-42.7,47.6c-18.5,3-34.4-2.5-47.3-16.4 c-0.4-0.5-0.7-1-1.5-2.1c-0.6,1-0.8,1.5-1.2,1.9c-12.5,13.4-27.9,19-46.1,16.8c-20.6-2.5-38-17.8-42.9-38 C540.5,89.6,557,63,584.3,56c20.8-5.3,42.9,2.7,55.1,19.6c4,5.5,6.7,11.6,8.2,18.3C647.7,94.4,647.8,94.8,648,95.7z M597.2,134.4 c6.3,0.1,11.8-1.9,16.6-5.8c13.1-10.6,14.6-30.9,3.2-43.7c-9.6-10.8-25.6-11.9-36.7-2.7c-12.4,10.5-14,30.1-3.3,42.7 C582.3,131.1,589,134.3,597.2,134.4z M704.9,107.6c0-8.6-1.6-14.2-4.9-19.3c-10.3-15.7-31.9-16.7-43.4-1.9 c-9.1,11.7-8.4,28.8,1.8,39.6c9.8,10.4,25.7,11.3,36.4,2C701.5,122.1,704.8,114.4,704.9,107.6z"></path><path class="st1" d="M801.8,91.1c-6.9,20.7-13.8,41.5-20.8,62.3c-7,0-13.9,0-21.1,0c-10.8-32-21.5-64.1-32.4-96.4 c8.6,0,16.9,0,25.5,0c5.9,19.6,11.8,39.2,17.7,58.9c0.2,0,0.4,0,0.5,0c3.1-9.8,5.9-19.6,8.9-29.4c3-9.8,5.9-19.6,8.9-29.5 c7.1,0,14.2,0,21.6,0c6,19.6,12,39.4,18,59.2c0.1,0,0.3,0,0.4,0C835.1,96.5,841,76.8,847,57c8.5,0,16.8,0,25.5,0 c-10.8,32.2-21.5,64.3-32.2,96.4c-7,0-14,0-21,0c-0.3-0.8-0.6-1.7-0.9-2.5c-5.3-16-10.6-32-16-48c-0.9-2.6-0.4-5.2-0.3-7.8 c0-1.3,0.2-2.5,0.3-3.8C802.1,91.2,802,91.2,801.8,91.1z"></path><path class="st1" d="M456.7,78.5c-5.3-0.6-10.6-0.7-15.7-2.4c0-6.3,0-12.5,0-19c3.8,0,7.5,0,11.5,0c0-1.4,0-2.5,0-3.6 c0-5.9,0.1-11.8,1.3-17.7c0.5-2.5,1.2-5,2.1-7.4c3.3-8.9,9.8-13.8,19-15.2c8.8-1.3,17.5-0.7,26.1,1.5c0.6,1.7,0.7,18.3,0.2,22 c-0.8-0.2-1.6-0.4-2.4-0.7c-4.5-1.4-9.1-1.7-13.7-0.9c-4.1,0.7-6.8,3.1-7.7,7.2c-0.4,1.6-0.6,3.3-0.6,5c-0.1,3,0,6.1,0,9.4 c5,0.3,9.9,0,14.9,0.2c0,7,0,13.9,0,21c-4.9,0-9.7,0-14.9,0c0,25.2,0,50.1,0,75.1c-8.2,0-16,0-24.1,0c0-24.5,0-49.1,0-73.8 C454,79.1,455.3,78.8,456.7,78.5z"></path><path class="st1" d="M508.8,15c8.3,0,16.3,0,24.6,0c0,1.1,0,2,0,3c0,35.6,0,71.2,0,106.7c0,10,3.7,18.4,11.4,24.8 c1.3,1.1,2.8,2.1,4.4,3.3c-0.6,0.3-1.1,0.7-1.7,0.9c-7.7,2.8-15.5,2.9-23.3,0.4c-8.2-2.7-12.9-8.7-14.7-16.9 c-0.6-2.6-0.8-5.4-0.8-8.1c-0.1-37.3,0-74.5,0-111.8C508.7,16.7,508.7,16,508.8,15z"></path></svg> 