<?xml version="1.0" encoding="UTF-8"?> <svg xmlns="http://www.w3.org/2000/svg" xmlns:xlink="http://www.w3.org/1999/xlink" version="1.1" id="Calque_1" x="0px" y="0px" viewBox="0 0 168 40" style="enable-background:new 0 0 168 40;" xml:space="preserve"> <style type="text/css"> .st0{clip-path:url(#SVGID_00000064333490128943462540000011024249867948670341_);} .st1{fill:#C0C0C0;} </style> <g> <defs> <rect id="SVGID_1_" y="0" width="167.5" height="40"></rect> </defs> <clipPath id="SVGID_00000112627100968405781120000011517310523310312345_"> <use xlink:href="#SVGID_1_" style="overflow:visible;"></use> </clipPath> <g style="clip-path:url(#SVGID_00000112627100968405781120000011517310523310312345_);"> <path class="st1" d="M23.9,7c-3.3,0-6.4,1-9.1,2.7V0H7.3v16.3L0,22.5l5,5.7L7.5,26c1.2,7.9,8.1,14,16.4,14 c9.2,0,16.6-7.4,16.6-16.5C40.6,14.4,33.1,7.1,23.9,7L23.9,7z M23.9,32.5c-5,0-9-4-9-8.9c0-4.9,4-8.9,9-8.9s9,4,9,8.9 C33,28.5,28.9,32.5,23.9,32.5z M161.3,15.1l-1.8,2.4C157.1,11.4,151.1,7,144,7c-9.2,0-16.6,7.4-16.6,16.5 c0,9.1,7.5,16.5,16.6,16.5c3.3,0,6.4-1,9.1-2.7v2.1h7.6V28.8l6.8-9.3L161.3,15.1L161.3,15.1z M144,32.5c-5,0-9-4-9-8.9 c0-4.9,4-8.9,9-8.9c5,0,9,4,9,8.9C153.1,28.5,149,32.5,144,32.5z M111.5,7c-3.8,0-7.2,1.6-9.7,4.1C99.4,8.6,95.9,7,92.1,7 c-7.4,0-13.5,6-13.5,13.4V40h7.6V20.4c0-3.2,2.6-5.8,5.9-5.8c3.2,0,5.9,2.6,5.9,5.8V40h7.6V20.4c0-3.2,2.6-5.8,5.9-5.8 c3.2,0,5.9,2.6,5.9,5.8V40h7.6V20.4C125,13,118.9,7,111.5,7L111.5,7z M59.6,7C50.4,7,43,14.4,43,23.5C43,32.6,50.4,40,59.6,40 c9.2,0,16.6-7.4,16.6-16.5C76.2,14.4,68.8,7,59.6,7z M59.6,32.5c-5,0-9-4-9-8.9c0-4.9,4-8.9,9-8.9c5,0,9,4,9,8.9 C68.6,28.5,64.6,32.5,59.6,32.5z"></path> </g> </g> </svg> 