<?xml version="1.0" encoding="UTF-8"?> <svg xmlns="http://www.w3.org/2000/svg" xmlns:xlink="http://www.w3.org/1999/xlink" height="159.078" viewBox="0 0 501.786 159.078" width="501.786"><clipPath id="a"><path d="m0 0h501.786v159.078h-501.786z"></path></clipPath><g clip-path="url(#a)"><path d="m30.146 136.806q-25.191 1.76-29.246-56.238a323.041 323.041 0 0 1 -.585-37.986q.528-10.923.885-16.882a5.321 5.321 0 0 1 5.81-4.965l1.687.144a6.494 6.494 0 0 1 5.889 7.032 349.909 349.909 0 0 0 -.219 52.323q2.264 32.352 10.556 41.141a5.38 5.38 0 0 0 4.27 1.851 8.563 8.563 0 0 0 5.6-3.145q6.58-8.756 8.1-28.87a285.46 285.46 0 0 0 .031-41.172l-.267-3.809c-.212-1.533-.407-3.2-.537-4.681-.284-2.939-.657-9.386 6.385-9.879v-.051a6.177 6.177 0 0 1 6.936 5.516c.236 2.6.472 5.232.657 7.867a281.852 281.852 0 0 0 6.44 32.911q4.209 16.332 10.207 27.512c4 7.449 8.425 11.439 13.26 12.018l.315-.021c2.241-.157 4.312-2.816 6.18-7.952q4.4-13.37 4.632-32.225a56.691 56.691 0 0 1 -17-19.436 67.376 67.376 0 0 1 -7.658-24.073l-.394-3.353q-.842-12.047 2.9-19.987 4-8.577 12.065-9.6a12.26 12.26 0 0 1 5.047.958c1.937.729 3.915 2.4 5.961 5.034 3.063 4.476 5.636 11.3 7.713 20.4a195.075 195.075 0 0 1 4.234 29.844q.441 6.257.565 12.538 6.842 3.8 16.606 3.983l-4.652-66.534a6.568 6.568 0 0 1 6.087-7 5.779 5.779 0 0 1 6.166 5.362l5.17 73.908q9.711-25.838 29.387-30.961a20.826 20.826 0 0 1 3.986-.7q8.295-.58 13.393 4.907 6.734 6.883 7.867 22.93a115.271 115.271 0 0 1 -.493 20.661q-.431 3.773-.91 7.251l10.858-12.989-2.556-31.809a17.648 17.648 0 0 0 9.554 1.875 18.5 18.5 0 0 0 5.335-1.153l4.619 57.614a7.622 7.622 0 0 1 -6.974 8.219 7.16 7.16 0 0 1 -7.716-6.563l-1.15-14.32-16.428 19.665-.253-.212a6.5 6.5 0 0 1 -6.139 1.731l-.161-.041a5.572 5.572 0 0 1 -4.151-6.522c1.276-6.091 2.341-12.586 3.22-19.539a124.212 124.212 0 0 0 .968-23.97c-.455-6.546-1.861-11.268-4.188-14.173l-.151-.277a10.661 10.661 0 0 1 -1.222-.623 5.328 5.328 0 0 0 -2.724-.359l-1.79.257c-6.17 1.742-11.186 5.684-15.025 11.9q-10 16.112-12.924 41.894c-.356 3.169-.606 5.937-.756 8.281a6.979 6.979 0 0 1 -6.515 6.536l-.5.034a5.37 5.37 0 0 1 -5.721-4.972l-2.573-36.84a53.908 53.908 0 0 1 -17.927-3q-.837 22.9-7.614 35.806c-4.12 7.025-9.2 10.762-15.306 11.189q-19.931.015-31.727-30.595-2.435 17.97-10.435 28.316c-4.161 4.955-9.133 7.662-14.95 8.069m66.442-78.576a209.937 209.937 0 0 0 -3.709-26.81q-2.51-11.7-5.437-16.261c-1.639 2.785-2.231 7.415-1.776 13.934a60.244 60.244 0 0 0 2.411 12.407c1.109 4.613 3.966 10.2 8.51 16.726m301.709 58.261a15.848 15.848 0 0 0 15.159 4.315 17.581 17.581 0 0 0 10.183-6.9 38.78 38.78 0 0 0 2.546-3.726l2.306 41.962a7.359 7.359 0 0 0 7.771 6.926 6.014 6.014 0 0 0 5.667-6.265l-6.39-118.375-.445.031a65.551 65.551 0 0 1 11.429-1.872 27.383 27.383 0 0 1 12.89 1.824q8.012 3.839 9.934 16.182a63.023 63.023 0 0 1 .941 7.09l.12 3.949c-2.768.9-5.728 2.026-8.883 3.347q-12.411 5.266-17.7 13.318c-3.528 5.383-5.116 10.42-4.784 15.169l.524 3a13.9 13.9 0 0 0 4.958 7.935 12.136 12.136 0 0 0 8.537 2.522c2.3-.161 5.417-1.242 9.338-3.247a37.86 37.86 0 0 0 11.34-9.468c4.445-4.661 7.555-12.243 9.369-22.694 4.859-1.362 8.979-2.385 12.391-3.069a7.758 7.758 0 0 0 6.269-8.141l-.065-.941a4.828 4.828 0 0 0 -5.578-4.431c-3.524.561-7.679 1.482-12.49 2.734-.205-2.922-.554-5.988-1.092-9.2q-3-18.817-17.01-25.883-8.182-3.988-20.295-3.141a97.415 97.415 0 0 0 -29.91 7.333 4.907 4.907 0 0 0 -2.6 6.683l.859 1.773a6.488 6.488 0 0 0 8.62 2.991h.027l1.187 21.619h-.387a167.909 167.909 0 0 1 -1.656 19.405 102.673 102.673 0 0 1 -4.387 19.357c-1.937 5.667-4.353 8.589-7.22 8.787a2.62 2.62 0 0 1 -1.916-.784q-6.036-6.534-9.058-49.709c-.243-3.466-.431-6.7-.606-9.708-.154-2.6-.294-5.027-.452-7.275-.934-13.352-8.079-10.991-8.079-10.991a5.917 5.917 0 0 0 -5.68 6.108c.157 4.5.291 10.122.339 16.853q.067 38.6-9.1 53.942a10.425 10.425 0 0 1 -8.507 4.63q-13.1.919-16.442-47.016a270.827 270.827 0 0 1 -.63-28.836 7.509 7.509 0 0 0 -6.916-7.826 6.186 6.186 0 0 0 -6.683 5.971c-.068 2.05-.127 4.544-.188 7.456q-.2 11.256.8 25.732 2.725 39 14.474 51.82 7.176 7.083 16.565 6.44 10.645-.744 18.078-9.465a36.463 36.463 0 0 0 5.79-10.156c1.728 5.253 3.949 9.239 6.731 11.925m-75.254 9.503a5.22 5.22 0 0 1 -5.372-4.866l-3.467-48.034a88.127 88.127 0 0 0 -2.69-17.448c-1.287-4.548-3.706-6.868-7.224-6.991a6.123 6.123 0 0 0 -3.9 1.95q-6.693 7.7-9.26 26.488a234.41 234.41 0 0 0 -2.3 34.571 6.717 6.717 0 0 1 -6.577 6.748l-1 .017a4.538 4.538 0 0 1 -4.654-4.366c-.079-1.855-.2-4.257-.346-7.182a206.679 206.679 0 0 0 -3.511-26.222q-2.556-12.95-6.772-17.373a1.487 1.487 0 0 0 -1.146-.63c-.547.038-1.461.811-2.748 2.289-3.34 3.928-6.361 12.449-9.064 25.5-1.68 8.243-3.384 21.7-4 27.063-.109 1.057-1.177 5.667-6.005 6.344s-6.731-2.176-7.162-5.711l-6.7-55.324a6.245 6.245 0 0 1 5.489-6.963 5.974 5.974 0 0 1 6.625 5.2l1.961 15.665c.017.236.359.236.424.024q7.14-25.464 20.3-26.4a13.29 13.29 0 0 1 10.279 3.87 27.96 27.96 0 0 1 6.464 10 .22.22 0 0 0 .421-.027q3.27-14.459 10.878-22.461a18.024 18.024 0 0 1 11.292-5.246l2.915.086q8.115.806 12.391 6.289a31.294 31.294 0 0 1 5.831 13.691 145.787 145.787 0 0 1 2.156 16.935l.811 11.607c.038.534.086 1.372.147 2.45v.007c.366 6.262 1.2 20.661 3.063 31.885.7 3.959-3.7 6.679-7.559 6.556m140.956-40.828c-3.607 4.6-7.371 7.408-11.258 8.387l-.24-1.187c-.157-2.217.968-4.89 3.4-8q2.91-3.855 10.741-7.145l1.629-.715a30.289 30.289 0 0 1 -4.27 8.657m-264.83-36.07a11.97 11.97 0 0 0 9.236 3.155 12.119 12.119 0 0 0 8.51-4.212 12.308 12.308 0 0 0 -1.225-17.527 12.424 12.424 0 0 0 -20.589 9.879 12.448 12.448 0 0 0 4.069 8.705" fill="#7cdcd8" fill-rule="evenodd" transform="translate(0 .001)"></path></g></svg> 