<?xml version="1.0" encoding="UTF-8"?> <svg xmlns="http://www.w3.org/2000/svg" xmlns:xlink="http://www.w3.org/1999/xlink" version="1.1" id="Calque_1" x="0px" y="0px" viewBox="0 0 703 101" style="enable-background:new 0 0 703 101;" xml:space="preserve"> <style type="text/css"> .st0{fill-rule:evenodd;clip-rule:evenodd;fill:#C0C0C0;} .st1{fill:#C0C0C0;} </style> <path class="st0" d="M107.1,27.5c2.3,2.3,3.6,5.5,3.6,8.8s-1.3,6.4-3.6,8.8L66.3,85.9c-2.4,2.3-5.5,3.6-8.8,3.6s-6.4-1.3-8.8-3.6 L8.1,45.3c-4.8-4.8-4.8-12.6,0-17.5l18-18.4C28.5,7,31.7,5.6,35,5.6h45.1c3.3,0,6.4,1.3,8.8,3.7L107.1,27.5z M102.5,40.5 c2.3-2.4,2.3-6.1,0-8.4L84.3,13.8c-1.1-1.1-2.6-1.7-4.2-1.7H35c-1.6,0-3.1,0.7-4.2,1.8L12.7,32.3c-2.3,2.3-2.3,6.1,0,8.4l40.6,40.5 c1.1,1.2,2.6,1.8,4.2,1.8c1.6,0,3.1-0.6,4.2-1.8l40.8-40.8V40.5z"></path> <circle class="st1" cx="37" cy="43.8" r="4.7"></circle> <circle class="st1" cx="52.7" cy="41.9" r="6.6"></circle> <circle class="st1" cx="73.4" cy="39" r="9.5"></circle> <path class="st1" d="M153,71.3c-3.1-1-6.1-2.7-8.8-5.1c-1.5-1.3-2.2-2.8-2.2-4.4c0-1.3,0.5-2.4,1.4-3.4c0.9-1,2.1-1.5,3.4-1.5 c1.1,0,2,0.3,2.8,1c2.3,1.9,4.5,3.2,6.6,4c2.1,0.9,4.6,1.3,7.5,1.3c3.1,0,5.8-0.7,8.1-2.1c2.2-1.4,3.3-3.1,3.3-5.2 c0-2.5-1.1-4.4-3.3-5.9c-2.3-1.4-5.8-2.5-10.6-3.2c-12.2-1.8-18.3-7.5-18.3-17c0-3.5,0.9-6.6,2.8-9.2c1.8-2.6,4.3-4.6,7.5-5.9 c3.1-1.3,6.7-2,10.6-2.1c3.5,0,6.8,0.5,9.9,1.6c3.1,1.1,5.6,2.5,7.7,4.2c1.6,1.3,2.4,2.7,2.4,4.4c0,1.3-0.5,2.5-1.4,3.4 c-0.9,1-2,1.5-3.3,1.5c-0.9,0-1.6-0.3-2.3-0.8c-1.5-1.1-3.5-2.2-6-3.2c-2.6-0.9-4.9-1.4-7-1.4c-3.5,0-6.3,0.6-8.2,1.9 c-1.9,1.3-2.9,3.1-2.9,5.2c0,2.4,1,4.2,3,5.4c2,1.2,5.1,2.2,9.3,3c4.8,0.9,8.6,1.9,11.5,3.2c2.9,1.3,5,3.1,6.5,5.4 c1.5,2.3,2.2,5.2,2.2,8.9c-0.1,3.5-1.1,6.6-3,9.3c-2,2.7-4.6,4.7-7.9,6.1c-3.3,1.4-6.8,2.1-10.6,2.1C159.7,72.8,156.1,72.3,153,71.3 z"></path> <path class="st1" d="M230.7,28.7c0.9,1,1.4,2.2,1.4,3.7v21.2c0,6-1.7,10.7-5,14.1c-3.3,3.4-8,5.1-14.1,5.1s-10.8-1.7-14.1-5.1 c-3.3-3.4-5-8.1-5-14.1V32.4c0-1.5,0.5-2.7,1.4-3.7c1-0.9,2.2-1.4,3.6-1.4c1.5,0,2.7,0.5,3.6,1.4c1,1,1.5,2.2,1.4,3.7v21.2 c0,3.4,0.8,5.9,2.3,7.6c1.5,1.6,3.8,2.4,6.8,2.4s5.3-0.8,6.8-2.4c1.5-1.7,2.3-4.2,2.3-7.6V32.4c0-1.5,0.5-2.7,1.4-3.7 c0.9-0.9,2.1-1.4,3.6-1.4C228.6,27.3,229.8,27.8,230.7,28.7z"></path> <path class="st0" d="M276.6,29.4c3.1,2,5.5,4.7,7.3,8.2c1.9,3.5,2.8,7.5,2.8,12s-0.9,8.5-2.7,12c-1.8,3.5-4.2,6.3-7.3,8.2 c-3.1,2-6.5,3-10.2,3c-2.7,0-5.2-0.5-7.6-1.6s-4.4-2.4-5.9-4v16.4c0,1.5-0.5,2.7-1.4,3.6c-0.9,1-2.1,1.5-3.6,1.5 c-1.5,0-2.7-0.5-3.6-1.4c-0.9-1-1.4-2.2-1.4-3.7V32.4c0-1.5,0.5-2.7,1.4-3.7c0.9-0.9,2.1-1.4,3.6-1.4c1.5,0,2.7,0.5,3.6,1.4 c0.9,1,1.4,2.2,1.4,3.7v0.3c1.3-1.7,3.2-3.1,5.6-4.4s4.9-1.9,7.5-1.9C270,26.4,273.5,27.4,276.6,29.4L276.6,29.4z M273.6,59.6 c2.3-2.7,3.5-6,3.5-10c0-4-1.1-7.3-3.4-10s-5.2-4-8.8-4s-6.6,1.3-8.9,4c-2.3,2.7-3.4,6-3.4,10c0,4,1.1,7.3,3.4,10 c2.3,2.7,5.2,4,8.9,4C268.5,63.6,271.4,62.3,273.6,59.6L273.6,59.6z"></path> <path class="st0" d="M333.5,51.8c-1,0.9-2.2,1.3-3.5,1.3h-27.6c0.7,3.3,2.3,5.8,4.7,7.7c2.3,1.9,5,2.8,8.1,2.8c2.3,0,4-0.2,5.3-0.6 s2.3-0.8,3.1-1.3c0.7-0.5,1.2-0.9,1.5-1c1-0.5,1.9-0.8,2.8-0.8c1.2,0,2.2,0.4,3.1,1.3c0.8,0.8,1.2,1.8,1.2,2.9 c0,1.5-0.8,2.9-2.3,4.1c-1.6,1.3-3.7,2.4-6.3,3.3c-2.6,0.9-5.2,1.3-7.9,1.3c-4.7,0-8.8-1-12.3-2.9c-3.5-1.9-6.1-4.6-8-8.1 c-1.9-3.4-2.9-7.2-2.9-11.5c0-4.8,1-9,3-12.7c2-3.6,4.7-6.4,8-8.3c3.3-1.9,6.8-2.9,10.5-2.9c3.7,0,7.1,1,10.4,3.1 c3.3,2,5.9,4.7,7.8,8.1c1.9,3.4,2.9,7.1,2.9,11C335,49.9,334.5,51,333.5,51.8L333.5,51.8z M302.5,44.8c0.1-0.1,0.1-0.1,0.1-0.1 L302.5,44.8L302.5,44.8z M324.4,44.8v-0.5c-0.2-2.4-1.3-4.4-3.4-6.1c-2.1-1.7-4.4-2.5-7-2.5c-6.5,0-10.3,3-11.5,9.1L324.4,44.8z"></path> <path class="st1" d="M370.9,27.9c1.1,0.9,1.7,2,1.7,3.3c0,1.7-0.4,3-1.3,3.9c-0.9,0.9-2,1.3-3.2,1.3c-0.8,0-1.7-0.2-2.8-0.6 c-0.2-0.1-0.6-0.2-1.2-0.3c-0.5-0.2-1.1-0.3-1.8-0.3c-1.5,0-2.9,0.5-4.2,1.4c-1.3,0.9-2.4,2.2-3.3,4c-0.9,1.8-1.3,4-1.3,6.5v19.8 c0,1.5-0.5,2.7-1.4,3.6c-1,1-2.2,1.5-3.6,1.5c-1.5,0-2.7-0.5-3.6-1.5s-1.4-2.2-1.4-3.6V32.4c0-1.5,0.5-2.7,1.4-3.6 c0.9-1,2.1-1.5,3.6-1.5c1.4,0,2.6,0.5,3.6,1.5c0.9,0.9,1.4,2.1,1.4,3.6v1.1c1.3-2.3,3.1-4,5.5-5.2c2.4-1.2,5-1.8,7.7-1.8 C368.4,26.4,369.8,26.9,370.9,27.9L370.9,27.9z"></path> <path class="st1" d="M442.7,31.5c2.1,3.4,3.2,8.1,3.2,14v21.4c0,1.5-0.5,2.7-1.4,3.6c-1,1-2.2,1.5-3.6,1.5c-1.5,0-2.7-0.5-3.6-1.5 c-0.9-1-1.4-2.2-1.4-3.6V45.5c0-3.1-0.6-5.5-1.8-7.2c-1.2-1.8-3.3-2.7-6.3-2.7c-3.1,0-5.6,1-7.4,2.8c-1.7,1.9-2.6,4.2-2.6,7.1v21.4 c0,1.5-0.5,2.7-1.4,3.6c-0.9,1-2.1,1.5-3.6,1.5s-2.7-0.5-3.6-1.5c-0.9-1-1.4-2.2-1.4-3.6V45.5c0-3.1-0.6-5.5-1.8-7.2 c-1.2-1.8-3.3-2.7-6.3-2.7s-5.6,1-7.3,2.8c-1.8,1.9-2.7,4.2-2.7,7.1v21.4c0,1.5-0.5,2.7-1.4,3.6c-0.9,1-2.1,1.5-3.6,1.5 c-1.4,0-2.6-0.5-3.6-1.5c-0.9-1-1.4-2.2-1.4-3.6V32.4c0-1.5,0.5-2.7,1.4-3.6c1-1,2.2-1.5,3.6-1.5c1.5,0,2.7,0.5,3.6,1.5 c0.9,0.9,1.4,2.1,1.4,3.6v1.3c1.5-2,3.5-3.7,5.8-5.1c2.3-1.4,4.8-2.1,7.7-2.1c7-0.1,11.5,3,13.4,9.1c1.3-2.3,3.3-4.4,5.9-6.3 c2.5-1.9,5.5-2.8,8.8-2.8C436.8,26.5,440.6,28.2,442.7,31.5L442.7,31.5z"></path> <path class="st0" d="M496.7,61.7c-2,3.5-4.8,6.3-8.3,8.2c-3.5,1.9-7.3,2.9-11.4,2.9c-4.2,0-8.1-1-11.6-2.9c-3.4-1.9-6.1-4.7-8.2-8.2 c-2-3.5-3-7.5-3-12c0-4.5,1-8.5,3-12c2-3.5,4.7-6.3,8.2-8.3s7.3-3,11.6-3c4.2,0,8,1,11.4,3c3.5,2,6.3,4.8,8.3,8.3c2,3.5,3,7.5,3,12 C499.7,54.2,498.7,58.2,496.7,61.7z M487.9,42.4c-1.1-2.2-2.6-3.9-4.5-5c-1.9-1.2-4.1-1.8-6.4-1.8c-2.3,0-4.5,0.6-6.4,1.8 c-1.9,1.1-3.5,2.8-4.6,5c-1.1,2.1-1.7,4.6-1.7,7.3c0,2.7,0.6,5.1,1.7,7.2c1.1,2.1,2.7,3.8,4.6,5c1.9,1.1,4.1,1.7,6.4,1.7 c2.3,0,4.5-0.6,6.4-1.7c1.9-1.2,3.4-2.9,4.5-5c1.2-2.1,1.8-4.5,1.8-7.2C489.7,47,489.1,44.5,487.9,42.4z"></path> <path class="st1" d="M543.7,31.5c2.2,3.4,3.3,8.1,3.3,14v21.4c0,1.5-0.5,2.7-1.4,3.6c-1,1-2.2,1.5-3.6,1.5c-1.5,0-2.7-0.5-3.6-1.5 c-1-1-1.5-2.2-1.4-3.6V45.5c0-3.1-0.7-5.5-2-7.2c-1.3-1.8-3.5-2.7-6.6-2.7c-3.1,0-5.7,1-7.6,2.8c-1.8,1.9-2.7,4.2-2.7,7.1v21.4 c0,1.5-0.5,2.7-1.4,3.6c-1,1-2.2,1.5-3.6,1.5c-1.5,0-2.7-0.5-3.6-1.5c-1-1-1.5-2.2-1.4-3.6V32.4c-0.1-1.5,0.4-2.7,1.4-3.6 c0.9-1,2.1-1.5,3.6-1.5c1.4,0,2.6,0.5,3.6,1.5c0.9,0.9,1.4,2.1,1.4,3.6v1.4c1.5-2,3.4-3.7,5.9-5.2c2.4-1.5,5-2.2,7.9-2.1 C537.6,26.5,541.6,28.2,543.7,31.5L543.7,31.5z"></path> <path class="st0" d="M597.6,11.6c0.9,0.9,1.4,2.2,1.4,3.7v51.6c0,1.5-0.5,2.7-1.4,3.6c-0.9,1-2.1,1.5-3.6,1.5 c-1.5,0-2.6-0.5-3.5-1.4c-0.9-1-1.4-2.2-1.5-3.6c-1.4,1.6-3.3,3-5.7,4.1c-2.3,1.1-4.8,1.7-7.4,1.7c-3.9,0-7.4-1-10.5-2.9 c-3.1-2-5.5-4.8-7.4-8.3c-1.8-3.5-2.7-7.4-2.7-11.9c0-4.5,0.9-8.5,2.7-12c1.8-3.5,4.2-6.3,7.3-8.3c3.1-2,6.5-3,10.2-3 c2.7,0,5.2,0.5,7.5,1.5c2.4,1,4.4,2.2,6,3.7V15.3c0-1.5,0.5-2.7,1.4-3.7c0.9-0.9,2.1-1.4,3.6-1.4S596.7,10.7,597.6,11.6L597.6,11.6z M586,59.7c2.3-2.7,3.4-6,3.4-10s-1.1-7.3-3.4-10c-2.3-2.7-5.3-4-8.9-4c-3.6,0-6.5,1.3-8.8,4c-2.3,2.7-3.4,6-3.4,10s1.1,7.3,3.4,10 c2.3,2.6,5.2,3.9,8.8,3.9C580.7,63.6,583.7,62.3,586,59.7z"></path> <path class="st0" d="M649.6,27.9c1,0.9,1.5,2.2,1.4,3.7v35.3c0.1,1.5-0.4,2.7-1.4,3.6c-0.9,1-2.1,1.5-3.6,1.5 c-1.4,0-2.6-0.5-3.5-1.4c-0.9-1-1.4-2.2-1.5-3.6c-1.4,1.6-3.3,3-5.6,4.1c-2.4,1.1-4.9,1.7-7.5,1.7c-3.9,0-7.3-1-10.4-2.9 c-3.1-2-5.6-4.8-7.4-8.3c-1.8-3.5-2.7-7.4-2.7-11.9c0-4.5,0.9-8.5,2.6-12c1.8-3.5,4.2-6.3,7.3-8.3c3.1-2,6.6-3,10.3-3 c2.7,0,5.2,0.5,7.5,1.5c2.3,1,4.3,2.2,5.9,3.7v-0.1c0-1.4,0.5-2.6,1.4-3.6c1-0.9,2.2-1.4,3.6-1.4C647.5,26.4,648.7,26.9,649.6,27.9 L649.6,27.9z M638,59.7c2.3-2.7,3.4-6,3.4-10s-1.1-7.3-3.4-10s-5.2-4-8.9-4c-3.6,0-6.4,1.3-8.7,4c-2.3,2.7-3.4,6-3.4,10 s1.1,7.3,3.3,10c2.3,2.6,5.2,3.9,8.8,3.9C632.8,63.6,635.7,62.3,638,59.7L638,59.7z"></path> <path class="st1" d="M697.3,70.5c0,1.7,0.1,3.3-0.1,4.9c-0.2,1.6-0.5,3.2-1,4.7c-1,2.9-2.6,5.6-4.7,7.9c-0.9,1-1.9,1.9-3,2.7 c-2.2,1.6-4.9,2.6-7.5,3.1c-5.9,1.2-12,0.8-17.8-0.2c-5.3-1-10.4-3-15.7-3.8c-2.8-0.3-5.6-0.2-8.5,0.1c-3,0.4-5.9,1.2-8.6,2.3 c-2.7,1.2-5.3,2.7-7.7,4.5c-0.9,0.8-2.4,0.8-3.6,0.5c-1.1-0.2-2.1-1.1-2.7-2.1c-0.7-1-0.8-2.5-0.5-3.6c0.3-1.3,1.1-2,2.1-2.8 c3-2.3,6.3-4,9.9-5.4c5.8-2.4,12.5-3.4,18.8-2.9c3.7,0.4,7.2,1.2,10.8,2.2c3.2,0.9,6.5,1.8,9.8,2.3c0.7,0.1,1.3,0.1,2,0.2 c1.3,0.1,2.6,0.1,3.9,0.1c1.3,0,2.6,0,3.9-0.1c1.3-0.2,2.5-0.4,3.7-0.9c0.1-0.1,0.3-0.1,0.4-0.2c1.1-0.5,2-1.1,2.9-1.8 c0.1-0.2,0.3-0.4,0.5-0.5c0.3-0.3,0.5-0.7,0.8-1c3.6-4.8,2-13.9,2-13.9c-2.9,3.6-7.3,5.4-13.4,5.4c-2.9,0-5.4-0.7-7.6-2 c-2.3-1.3-4-3.2-5.2-5.6s-1.8-5.2-1.8-8.3V32.1c0-1.5,0.5-2.7,1.4-3.6c0.9-1,2.1-1.5,3.6-1.5c1.4,0,2.6,0.5,3.6,1.5 c0.9,0.9,1.4,2.1,1.4,3.6v21.2c0,3.5,0.7,6,2.2,7.5c1.6,1.6,3.8,2.3,6.7,2.3c2.9,0,5.1-0.8,6.7-2.5c1.6-1.7,2.4-4.2,2.4-7.3V32.1 c0-1.5,0.5-2.7,1.4-3.6c0.9-1,2.1-1.5,3.5-1.5c1.5,0,2.7,0.5,3.6,1.5c0.9,0.9,1.4,2.1,1.4,3.6v31c0,0.8,0,1.6,0,2.4 c0.1,1.7,0.1,3.4,0.1,5.1L697.3,70.5z"></path> </svg> 