<?xml version="1.0" encoding="UTF-8" standalone="no"?> <svg xmlns:dc="http://purl.org/dc/elements/1.1/" xmlns:cc="http://creativecommons.org/ns#" xmlns:rdf="http://www.w3.org/1999/02/22-rdf-syntax-ns#" xmlns:svg="http://www.w3.org/2000/svg" xmlns="http://www.w3.org/2000/svg" xmlns:sodipodi="http://sodipodi.sourceforge.net/DTD/sodipodi-0.dtd" xmlns:inkscape="http://www.inkscape.org/namespaces/inkscape" width="132.54045mm" height="75.116356mm" viewBox="0 0 132.54046 75.116338" version="1.1" id="svg1105" inkscape:version="0.92.5 (2060ec1f9f, 2020-04-08)" sodipodi:docname="olome_logo_orange_o_3_1_white_bg_no_border_narrow.svg" inkscape:export-filename="/home/longwei/olome/olome-artwork/logos/olome_logo_orange_o_3_1_white_bg_no_border.png" inkscape:export-xdpi="299.77621" inkscape:export-ydpi="299.77621"><defs id="defs1099"></defs><metadata id="metadata1102"></metadata><g inkscape:label="Calque 1" inkscape:groupmode="layer" id="layer1" transform="translate(-291.00381,-52.114124)"><rect style="fill:#ffffff;fill-opacity:1;stroke:none;stroke-width:1.69508147;stroke-miterlimit:4;stroke-dasharray:none;stroke-opacity:1" id="rect905" width="132.54045" height="75.116356" x="291.00381" y="52.114124" ry="0"></rect><g id="g4809" transform="translate(0.36037912,-0.07464777)"><g transform="translate(0.06175492,0.10589952)" id="g840"><g id="text1702" style="font-style:normal;font-variant:normal;font-weight:bold;font-stretch:normal;font-size:50.79999924px;line-height:1.25;font-family:'Roboto Condensed';-inkscape-font-specification:'Roboto Condensed, Bold';font-variant-ligatures:normal;font-variant-caps:normal;font-variant-numeric:normal;fill:#272932;fill-opacity:1;stroke:none;stroke-width:0.26458299" aria-label="olome"><path id="path824" style="font-style:normal;font-variant:normal;font-weight:normal;font-stretch:normal;font-size:50.79999924px;font-family:'Squada One';-inkscape-font-specification:'Squada One, @wght=700';font-variant-ligatures:normal;font-variant-caps:normal;font-variant-numeric:normal;fill:#272932;fill-opacity:1;stroke-width:0.26458299" d="m 320.64253,68.263821 v 12.3952 q 0,6.7056 -6.2992,6.7056 h -5.7404 q -6.2992,0 -6.2992,-6.7056 v -12.3952 q 0,-6.7056 6.2992,-6.7056 h 5.7404 q 6.2992,0 6.2992,6.7056 z m -6.8072,13.8176 v -15.2908 q 0,-0.4064 -0.3048,-0.7112 -0.254,-0.3048 -0.6604,-0.3048 h -2.794 q -0.4064,0 -0.7112,0.3048 -0.254,0.3048 -0.254,0.7112 v 15.2908 q 0,0.4064 0.254,0.7112 0.3048,0.3048 0.7112,0.3048 h 2.794 q 0.4064,0 0.6604,-0.3048 0.3048,-0.3048 0.3048,-0.7112 z" inkscape:connector-curvature="0"></path><path id="path826" style="font-style:normal;font-variant:normal;font-weight:normal;font-stretch:normal;font-size:50.79999924px;font-family:'Squada One';-inkscape-font-specification:'Squada One, @wght=700';font-variant-ligatures:normal;font-variant-caps:normal;font-variant-numeric:normal;fill:#272932;fill-opacity:1;stroke-width:0.26458299" d="m 332.07251,86.856621 h -6.8072 v -32.8676 h 6.8072 z" inkscape:connector-curvature="0"></path><path id="path828" style="font-style:normal;font-variant:normal;font-weight:normal;font-stretch:normal;font-size:50.79999924px;font-family:'Squada One';-inkscape-font-specification:'Squada One, @wght=700';font-variant-ligatures:normal;font-variant-caps:normal;font-variant-numeric:normal;fill:#d26324;fill-opacity:1;stroke:none;stroke-width:0.26458299;stroke-opacity:0.52396498" d="m 354.98326,68.263821 v 12.3952 q 0,6.7056 -6.2992,6.7056 h -5.7404 q -6.2992,0 -6.2992,-6.7056 v -12.3952 q 0,-6.7056 6.2992,-6.7056 h 5.7404 q 6.2992,0 6.2992,6.7056 z m -6.8072,13.8176 v -15.2908 q 0,-0.4064 -0.3048,-0.7112 -0.254,-0.3048 -0.6604,-0.3048 h -2.794 q -0.4064,0 -0.7112,0.3048 -0.254,0.3048 -0.254,0.7112 v 15.2908 q 0,0.4064 0.254,0.7112 0.3048,0.3048 0.7112,0.3048 h 2.794 q 0.4064,0 0.6604,-0.3048 0.3048,-0.3048 0.3048,-0.7112 z" inkscape:connector-curvature="0"></path><path id="path830" style="font-style:normal;font-variant:normal;font-weight:normal;font-stretch:normal;font-size:50.79999924px;font-family:'Squada One';-inkscape-font-specification:'Squada One, @wght=700';font-variant-ligatures:normal;font-variant-caps:normal;font-variant-numeric:normal;fill:#272932;fill-opacity:1;stroke-width:0.26458299" d="m 381.95805,61.558221 q 6.2992,0 6.2992,6.7056 v 18.5928 h -6.8072 v -19.4056 q 0,-0.4064 -0.3048,-0.7112 -0.254,-0.3048 -0.6604,-0.3048 h -2.1844 q -0.4064,0 -0.7112,0.3048 -0.254,0.3048 -0.254,0.7112 v 19.4056 h -6.8072 v -19.4056 q 0,-0.4064 -0.3048,-0.7112 -0.254,-0.3048 -0.6604,-0.3048 h -2.1844 q -0.4064,0 -0.7112,0.3048 -0.254,0.3048 -0.254,0.7112 v 19.4056 h -6.8072 v -24.7904 h 6.1976 v 1.27 q 1.5748,-1.778 4.7752,-1.778 h 0.4572 q 3.7592,0 5.2324,2.3368 1.5748,-2.3368 5.2324,-2.3368 z" inkscape:connector-curvature="0"></path><path id="path832" style="font-style:normal;font-variant:normal;font-weight:normal;font-stretch:normal;font-size:50.79999924px;font-family:'Squada One';-inkscape-font-specification:'Squada One, @wght=700';font-variant-ligatures:normal;font-variant-caps:normal;font-variant-numeric:normal;fill:#272932;fill-opacity:1;stroke-width:0.26458299" d="m 405.2244,61.558221 q 6.2992,0 6.2992,6.7056 v 8.0264 H 399.992 v 5.1816 q 0,0.4064 0.254,0.7112 0.3048,0.3048 0.7112,0.3048 h 2.794 q 0.4064,0 0.6604,-0.3048 0.3048,-0.3048 0.3048,-0.7112 v -2.7432 h 6.8072 v 1.9304 q 0,6.7056 -6.2992,6.7056 h -5.7404 q -6.2992,0 -6.2992,-6.7056 v -12.3952 q 0,-6.7056 6.2992,-6.7056 z m -5.2324,10.2616 h 4.7244 v -4.572 q 0,-0.4064 -0.3048,-0.7112 -0.254,-0.3048 -0.6604,-0.3048 h -2.794 q -0.4064,0 -0.7112,0.3048 -0.254,0.3048 -0.254,0.7112 z" inkscape:connector-curvature="0"></path></g><g id="text1702-3" style="font-style:normal;font-variant:normal;font-weight:bold;font-stretch:normal;font-size:50.79999924px;line-height:1.25;font-family:'Roboto Condensed';-inkscape-font-specification:'Roboto Condensed, Bold';font-variant-ligatures:normal;font-variant-caps:normal;font-variant-numeric:normal;fill:#272932;fill-opacity:0.09803922;stroke:none;stroke-width:0.26458299" transform="scale(1,-1)" aria-label="olome"><path id="path835" style="font-style:normal;font-variant:normal;font-weight:normal;font-stretch:normal;font-size:50.79999924px;font-family:'Squada One';-inkscape-font-specification:'Squada One, @wght=700';font-variant-ligatures:normal;font-variant-caps:normal;font-variant-numeric:normal;fill:#272932;fill-opacity:0.09803922;stroke-width:0.26458299" d="m 320.64253,-111.01828 v 12.395204 q 0,6.7056 -6.2992,6.7056 h -5.7404 q -6.2992,0 -6.2992,-6.7056 v -12.395204 q 0,-6.7056 6.2992,-6.7056 h 5.7404 q 6.2992,0 6.2992,6.7056 z m -6.8072,13.817604 v -15.290804 q 0,-0.4064 -0.3048,-0.7112 -0.254,-0.3048 -0.6604,-0.3048 h -2.794 q -0.4064,0 -0.7112,0.3048 -0.254,0.3048 -0.254,0.7112 v 15.290804 q 0,0.4064 0.254,0.7112 0.3048,0.3048 0.7112,0.3048 h 2.794 q 0.4064,0 0.6604,-0.3048 0.3048,-0.3048 0.3048,-0.7112 z" inkscape:connector-curvature="0"></path><path id="path837" style="font-style:normal;font-variant:normal;font-weight:normal;font-stretch:normal;font-size:50.79999924px;font-family:'Squada One';-inkscape-font-specification:'Squada One, @wght=700';font-variant-ligatures:normal;font-variant-caps:normal;font-variant-numeric:normal;fill:#272932;fill-opacity:0.09803922;stroke-width:0.26458299" d="m 332.07251,-92.425476 h -6.8072 v -32.867604 h 6.8072 z" inkscape:connector-curvature="0"></path><path id="path839" style="font-style:normal;font-variant:normal;font-weight:normal;font-stretch:normal;font-size:50.79999924px;font-family:'Squada One';-inkscape-font-specification:'Squada One, @wght=700';font-variant-ligatures:normal;font-variant-caps:normal;font-variant-numeric:normal;fill:#272932;fill-opacity:0.09803922;stroke-width:0.26458299" d="m 354.98326,-111.01828 v 12.395204 q 0,6.7056 -6.2992,6.7056 h -5.7404 q -6.2992,0 -6.2992,-6.7056 v -12.395204 q 0,-6.7056 6.2992,-6.7056 h 5.7404 q 6.2992,0 6.2992,6.7056 z m -6.8072,13.817604 v -15.290804 q 0,-0.4064 -0.3048,-0.7112 -0.254,-0.3048 -0.6604,-0.3048 h -2.794 q -0.4064,0 -0.7112,0.3048 -0.254,0.3048 -0.254,0.7112 v 15.290804 q 0,0.4064 0.254,0.7112 0.3048,0.3048 0.7112,0.3048 h 2.794 q 0.4064,0 0.6604,-0.3048 0.3048,-0.3048 0.3048,-0.7112 z" inkscape:connector-curvature="0"></path><path id="path841" style="font-style:normal;font-variant:normal;font-weight:normal;font-stretch:normal;font-size:50.79999924px;font-family:'Squada One';-inkscape-font-specification:'Squada One, @wght=700';font-variant-ligatures:normal;font-variant-caps:normal;font-variant-numeric:normal;fill:#272932;fill-opacity:0.09803922;stroke-width:0.26458299" d="m 381.95805,-117.72388 q 6.2992,0 6.2992,6.7056 v 18.592804 h -6.8072 v -19.405604 q 0,-0.4064 -0.3048,-0.7112 -0.254,-0.3048 -0.6604,-0.3048 h -2.1844 q -0.4064,0 -0.7112,0.3048 -0.254,0.3048 -0.254,0.7112 v 19.405604 h -6.8072 v -19.405604 q 0,-0.4064 -0.3048,-0.7112 -0.254,-0.3048 -0.6604,-0.3048 h -2.1844 q -0.4064,0 -0.7112,0.3048 -0.254,0.3048 -0.254,0.7112 v 19.405604 h -6.8072 v -24.790404 h 6.1976 v 1.27 q 1.5748,-1.778 4.7752,-1.778 h 0.4572 q 3.7592,0 5.2324,2.3368 1.5748,-2.3368 5.2324,-2.3368 z" inkscape:connector-curvature="0"></path><path id="path843" style="font-style:normal;font-variant:normal;font-weight:normal;font-stretch:normal;font-size:50.79999924px;font-family:'Squada One';-inkscape-font-specification:'Squada One, @wght=700';font-variant-ligatures:normal;font-variant-caps:normal;font-variant-numeric:normal;fill:#272932;fill-opacity:0.09803922;stroke-width:0.26458299" d="m 405.2244,-117.72388 q 6.2992,0 6.2992,6.7056 v 8.0264 H 399.992 v 5.181604 q 0,0.4064 0.254,0.7112 0.3048,0.3048 0.7112,0.3048 h 2.794 q 0.4064,0 0.6604,-0.3048 0.3048,-0.3048 0.3048,-0.7112 v -2.743204 h 6.8072 v 1.930404 q 0,6.7056 -6.2992,6.7056 h -5.7404 q -6.2992,0 -6.2992,-6.7056 v -12.395204 q 0,-6.7056 6.2992,-6.7056 z m -5.2324,10.2616 h 4.7244 v -4.572 q 0,-0.4064 -0.3048,-0.7112 -0.254,-0.3048 -0.6604,-0.3048 h -2.794 q -0.4064,0 -0.7112,0.3048 -0.254,0.3048 -0.254,0.7112 z" inkscape:connector-curvature="0"></path></g></g><g id="text1706" style="font-style:normal;font-variant:normal;font-weight:normal;font-stretch:normal;font-size:12.69999981px;line-height:1.25;font-family:Dosis;-inkscape-font-specification:'Dosis, @wght=400';font-variant-ligatures:normal;font-variant-caps:normal;font-variant-numeric:normal;fill:#272932;fill-opacity:1;stroke:none;stroke-width:0.29296201" transform="scale(1.1072607,0.90312967)" aria-label="industry made simple"><path id="path846" style="font-style:normal;font-variant:normal;font-weight:normal;font-stretch:normal;font-size:14.1111002px;font-family:Dosis;-inkscape-font-specification:'Dosis, @wght=400';font-variant-ligatures:normal;font-variant-caps:normal;font-variant-numeric:normal;fill:#272932;fill-opacity:1;stroke-width:0.29296201" d="m 265.99383,119.71014 q -0.18344,0 -0.32455,-0.11289 -0.127,-0.11289 -0.127,-0.254 v -5.95489 q 0,-0.16933 0.127,-0.254 0.14111,-0.0988 0.32455,-0.0988 0.19756,0 0.32456,0.0988 0.14111,0.0847 0.14111,0.254 v 5.95489 q 0,0.14111 -0.14111,0.254 -0.127,0.11289 -0.32456,0.11289 z m 0,-8.65011 q -0.254,0 -0.43744,-0.16933 -0.18345,-0.18345 -0.18345,-0.42333 0,-0.23989 0.18345,-0.40923 0.18344,-0.16933 0.43744,-0.16933 0.26811,0 0.43745,0.16933 0.18344,0.16934 0.18344,0.40923 0,0.23988 -0.18344,0.42333 -0.16934,0.16933 -0.43745,0.16933 z" inkscape:connector-curvature="0"></path><path id="path848" style="font-style:normal;font-variant:normal;font-weight:normal;font-stretch:normal;font-size:14.1111002px;font-family:Dosis;-inkscape-font-specification:'Dosis, @wght=400';font-variant-ligatures:normal;font-variant-caps:normal;font-variant-numeric:normal;fill:#272932;fill-opacity:1;stroke-width:0.29296201" d="m 268.66082,119.71014 q -0.18345,0 -0.32456,-0.11289 -0.127,-0.11289 -0.127,-0.254 v -5.95489 q 0,-0.16933 0.127,-0.254 0.14111,-0.0988 0.32456,-0.0988 0.18344,0 0.31044,0.0988 0.127,0.0847 0.127,0.254 v 0.635 q 0.22578,-0.40922 0.70556,-0.73377 0.47978,-0.33867 1.18533,-0.33867 0.67733,0 1.24178,0.36689 0.57855,0.35278 0.91722,0.95955 0.33866,0.59267 0.33866,1.32645 v 3.73944 q 0,0.18344 -0.14111,0.28222 -0.14111,0.0847 -0.32455,0.0847 -0.15522,0 -0.31045,-0.0847 -0.14111,-0.0988 -0.14111,-0.28222 v -3.73944 q 0,-0.46567 -0.23989,-0.87489 -0.23988,-0.40922 -0.63499,-0.66322 -0.39512,-0.26811 -0.87489,-0.26811 -0.42334,0 -0.81845,0.22577 -0.381,0.21167 -0.635,0.60678 -0.23989,0.39511 -0.23989,0.97367 v 3.73944 q 0,0.14111 -0.14111,0.254 -0.127,0.11289 -0.32455,0.11289 z" inkscape:connector-curvature="0"></path><path id="path850" style="font-style:normal;font-variant:normal;font-weight:normal;font-stretch:normal;font-size:14.1111002px;font-family:Dosis;-inkscape-font-specification:'Dosis, @wght=400';font-variant-ligatures:normal;font-variant-caps:normal;font-variant-numeric:normal;fill:#272932;fill-opacity:1;stroke-width:0.29296201" d="m 277.4238,119.80891 q -0.64911,0 -1.22766,-0.36688 -0.57856,-0.381 -0.93133,-1.00189 -0.33867,-0.62089 -0.33867,-1.31233 v -1.524 q 0,-0.73378 0.33867,-1.32645 0.35277,-0.60677 0.93133,-0.95955 0.57855,-0.36689 1.27,-0.36689 0.69144,0 1.15711,0.33867 0.47978,0.32455 0.70555,0.73377 v -4.72722 q 0,-0.16933 0.14111,-0.254 0.14111,-0.0988 0.32456,-0.0988 0.21167,0 0.32455,0.0988 0.127,0.0847 0.127,0.254 v 10.04711 q 0,0.14111 -0.127,0.254 -0.11288,0.11289 -0.32455,0.11289 -0.16933,0 -0.31045,-0.11289 -0.127,-0.11289 -0.127,-0.254 v -0.62089 q -0.21166,0.43744 -0.74788,0.762 -0.52211,0.32455 -1.18534,0.32455 z m 0.16934,-0.84666 q 0.508,0 0.889,-0.254 0.39511,-0.26811 0.62089,-0.59267 0.22577,-0.33866 0.22577,-0.55033 v -1.96144 q 0,-0.57856 -0.254,-0.97367 -0.254,-0.39511 -0.64911,-0.60678 -0.39511,-0.22577 -0.81844,-0.22577 -0.47978,0 -0.87489,0.26811 -0.39511,0.254 -0.635,0.66322 -0.23989,0.40922 -0.23989,0.87489 v 1.524 q 0,0.46566 0.23989,0.88899 0.23989,0.42334 0.635,0.69145 0.39511,0.254 0.86078,0.254 z" inkscape:connector-curvature="0"></path><path id="path852" style="font-style:normal;font-variant:normal;font-weight:normal;font-stretch:normal;font-size:14.1111002px;font-family:Dosis;-inkscape-font-specification:'Dosis, @wght=400';font-variant-ligatures:normal;font-variant-caps:normal;font-variant-numeric:normal;fill:#272932;fill-opacity:1;stroke-width:0.29296201" d="m 284.64868,119.80891 q -0.74789,0 -1.36878,-0.36688 -0.60678,-0.36689 -0.97367,-0.97367 -0.35277,-0.62089 -0.35277,-1.31233 v -3.75356 q 0,-0.14111 0.14111,-0.254 0.14111,-0.11288 0.32455,-0.11288 0.18345,0 0.31045,0.11288 0.14111,0.11289 0.14111,0.254 v 3.75356 q 0,0.46566 0.23989,0.87489 0.23989,0.40922 0.635,0.67733 0.39511,0.254 0.889,0.254 0.508,0 0.90311,-0.254 0.39511,-0.254 0.62089,-0.66322 0.23988,-0.42334 0.23988,-0.889 v -3.76767 q 0,-0.15522 0.14111,-0.254 0.14112,-0.0988 0.32456,-0.0988 0.21167,0 0.32456,0.0988 0.127,0.0988 0.127,0.254 v 3.76767 q 0,0.71966 -0.36689,1.32644 -0.35278,0.59267 -0.97367,0.95956 -0.60678,0.36688 -1.32644,0.36688 z" inkscape:connector-curvature="0"></path><path id="path854" style="font-style:normal;font-variant:normal;font-weight:normal;font-stretch:normal;font-size:14.1111002px;font-family:Dosis;-inkscape-font-specification:'Dosis, @wght=400';font-variant-ligatures:normal;font-variant-caps:normal;font-variant-numeric:normal;fill:#272932;fill-opacity:1;stroke-width:0.29296201" d="m 290.82932,119.80891 q -0.66323,0 -1.17123,-0.16933 -0.49388,-0.16933 -0.77611,-0.39511 -0.26811,-0.23989 -0.26811,-0.45156 0,-0.0988 0.0423,-0.18344 0.0423,-0.0988 0.11289,-0.16933 0.0847,-0.0706 0.16933,-0.0706 0.15522,0 0.33867,0.16934 0.19755,0.15522 0.53622,0.32455 0.35277,0.16933 0.98777,0.16933 0.80434,0 1.12889,-0.29633 0.32456,-0.31044 0.32456,-0.70555 0,-0.46567 -0.254,-0.71967 -0.23989,-0.26811 -0.64911,-0.40922 -0.39511,-0.14111 -0.84667,-0.26811 -0.43744,-0.127 -0.84667,-0.31045 -0.39511,-0.18344 -0.64911,-0.52211 -0.23988,-0.35278 -0.23988,-0.93133 0,-0.45156 0.22577,-0.889 0.22578,-0.43744 0.70556,-0.73378 0.49389,-0.29633 1.29822,-0.29633 0.46567,0 0.90311,0.0988 0.43744,0.0988 0.70555,0.26811 0.28223,0.15522 0.28223,0.33866 0,0.0564 -0.0564,0.18345 -0.0423,0.11289 -0.127,0.19755 -0.0847,0.0847 -0.19755,0.0847 -0.11289,0 -0.31045,-0.0988 -0.18344,-0.0988 -0.47977,-0.19755 -0.29634,-0.0988 -0.70556,-0.0988 -0.508,0 -0.81844,0.18344 -0.31045,0.18345 -0.45156,0.43745 -0.14111,0.254 -0.14111,0.49389 0,0.39511 0.254,0.60677 0.254,0.21167 0.64911,0.35278 0.40922,0.127 0.84667,0.254 0.45155,0.11289 0.84666,0.32456 0.40922,0.21166 0.64911,0.59266 0.254,0.381 0.254,1.016 0,0.83256 -0.59266,1.32645 -0.59267,0.49388 -1.67922,0.49388 z" inkscape:connector-curvature="0"></path><path id="path856" style="font-style:normal;font-variant:normal;font-weight:normal;font-stretch:normal;font-size:14.1111002px;font-family:Dosis;-inkscape-font-specification:'Dosis, @wght=400';font-variant-ligatures:normal;font-variant-caps:normal;font-variant-numeric:normal;fill:#272932;fill-opacity:1;stroke-width:0.29296201" d="m 296.68541,119.71014 q -1.08655,0 -1.66511,-0.49389 -0.57855,-0.49389 -0.57855,-1.58045 v -7.42243 q 0,-0.16934 0.14111,-0.254 0.15522,-0.0988 0.31044,-0.0988 0.18344,0 0.32456,0.0988 0.14111,0.0847 0.14111,0.254 v 2.82222 h 1.83444 q 0.14111,0 0.22578,0.11288 0.0847,0.11289 0.0847,0.26812 0,0.15522 -0.0847,0.26811 -0.0847,0.11289 -0.22578,0.11289 h -1.83444 v 3.83821 q 0,0.69145 0.29633,0.97367 0.29633,0.26811 1.03011,0.26811 h 0.39511 q 0.19756,0 0.29633,0.127 0.11289,0.11289 0.11289,0.28222 0,0.16934 -0.11289,0.29634 -0.0988,0.127 -0.29633,0.127 z" inkscape:connector-curvature="0"></path><path id="path858" style="font-style:normal;font-variant:normal;font-weight:normal;font-stretch:normal;font-size:14.1111002px;font-family:Dosis;-inkscape-font-specification:'Dosis, @wght=400';font-variant-ligatures:normal;font-variant-caps:normal;font-variant-numeric:normal;fill:#272932;fill-opacity:1;stroke-width:0.29296201" d="m 299.08427,119.71014 q -0.18344,0 -0.32455,-0.11289 -0.127,-0.11289 -0.127,-0.254 v -5.95489 q 0,-0.16933 0.127,-0.254 0.14111,-0.0988 0.32455,-0.0988 0.18345,0 0.31045,0.0988 0.127,0.0847 0.127,0.254 v 0.69145 q 0.15522,-0.29634 0.42333,-0.55034 0.26811,-0.254 0.635,-0.40922 0.36689,-0.16933 0.83255,-0.16933 h 0.49389 q 0.15522,0 0.254,0.127 0.11289,0.127 0.11289,0.29633 0,0.18345 -0.11289,0.31045 -0.0988,0.11289 -0.254,0.11289 h -0.49389 q -0.46566,0 -0.90311,0.254 -0.42333,0.254 -0.69144,0.70555 -0.26811,0.45156 -0.26811,1.10067 v 3.48544 q 0,0.14111 -0.14111,0.254 -0.127,0.11289 -0.32456,0.11289 z" inkscape:connector-curvature="0"></path><path id="path860" style="font-style:normal;font-variant:normal;font-weight:normal;font-stretch:normal;font-size:14.1111002px;font-family:Dosis;-inkscape-font-specification:'Dosis, @wght=400';font-variant-ligatures:normal;font-variant-caps:normal;font-variant-numeric:normal;fill:#272932;fill-opacity:1;stroke-width:0.29296201" d="m 303.04949,122.98391 q -0.18345,0 -0.31044,-0.0988 -0.127,-0.0847 -0.127,-0.31044 0,-0.16933 0.0705,-0.29633 0.0706,-0.127 0.22578,-0.127 0.33866,0 0.64911,-0.21167 0.31044,-0.21167 0.57855,-0.60678 0.26811,-0.381 0.47978,-0.87489 0.21167,-0.47977 0.33867,-1.03011 l -2.31422,-5.89844 q -0.0282,-0.0847 -0.0282,-0.14111 0,-0.127 0.0847,-0.21166 0.0988,-0.0988 0.22578,-0.15523 0.14111,-0.0705 0.254,-0.0705 0.11289,0 0.19755,0.0564 0.0988,0.0423 0.127,0.14111 l 1.93323,5.19289 1.82033,-5.19289 q 0.0423,-0.0988 0.127,-0.14111 0.0847,-0.0564 0.18344,-0.0564 0.11289,0 0.23989,0.0564 0.14111,0.0564 0.22578,0.15523 0.0988,0.0988 0.0988,0.23988 0,0.0706 -0.0282,0.127 l -2.18722,5.91256 q -0.21166,0.56444 -0.45155,1.18533 -0.23989,0.62089 -0.56445,1.143 -0.31044,0.53622 -0.762,0.87489 -0.45155,0.33866 -1.08655,0.33866 z" inkscape:connector-curvature="0"></path><path id="path862" style="font-style:normal;font-variant:normal;font-weight:normal;font-stretch:normal;font-size:14.1111002px;font-family:Dosis;-inkscape-font-specification:'Dosis, @wght=400';font-variant-ligatures:normal;font-variant-caps:normal;font-variant-numeric:normal;fill:#272932;fill-opacity:1;stroke-width:0.29296201" d="m 312.48977,119.71014 q -0.18344,0 -0.32455,-0.11289 -0.127,-0.11289 -0.127,-0.254 v -5.95489 q 0,-0.16933 0.127,-0.254 0.14111,-0.0988 0.32455,-0.0988 0.18345,0 0.31045,0.0988 0.127,0.0847 0.127,0.254 v 0.635 q 0.23989,-0.40922 0.70555,-0.73377 0.47978,-0.33867 1.17122,-0.33867 0.70556,0 1.22767,0.39511 0.52211,0.39511 0.77611,1.016 0.36689,-0.71967 0.94544,-1.05833 0.59267,-0.35278 1.19945,-0.35278 0.60677,0 1.143,0.31044 0.55033,0.31045 0.889,0.90311 0.33866,0.57856 0.33866,1.43934 v 3.73944 q 0,0.14111 -0.14111,0.254 -0.127,0.11289 -0.32455,0.11289 -0.18345,0 -0.32456,-0.11289 -0.127,-0.11289 -0.127,-0.254 v -3.73944 q 0,-0.60678 -0.23989,-1.00189 -0.23989,-0.39511 -0.62089,-0.59267 -0.36689,-0.21166 -0.74788,-0.21166 -0.40923,0 -0.79023,0.21166 -0.36688,0.21167 -0.62088,0.60678 -0.23989,0.381 -0.23989,0.91722 v 3.82411 q 0,0.18344 -0.15523,0.26811 -0.14111,0.0847 -0.31044,0.0847 -0.15522,0 -0.31044,-0.0847 -0.14111,-0.0847 -0.14111,-0.26811 v -3.81 q 0,-0.508 -0.22578,-0.90311 -0.22578,-0.39511 -0.59267,-0.62089 -0.35278,-0.22577 -0.79022,-0.22577 -0.40922,0 -0.79022,0.21166 -0.381,0.21167 -0.635,0.62089 -0.23989,0.39511 -0.23989,0.97367 v 3.73944 q 0,0.14111 -0.14111,0.254 -0.127,0.11289 -0.32456,0.11289 z" inkscape:connector-curvature="0"></path><path id="path864" style="font-style:normal;font-variant:normal;font-weight:normal;font-stretch:normal;font-size:14.1111002px;font-family:Dosis;-inkscape-font-specification:'Dosis, @wght=400';font-variant-ligatures:normal;font-variant-caps:normal;font-variant-numeric:normal;fill:#272932;fill-opacity:1;stroke-width:0.29296201" d="m 324.51242,119.80891 q -0.80433,0 -1.36877,-0.45155 -0.55034,-0.46567 -0.55034,-1.41111 0,-0.77611 0.40922,-1.18533 0.42334,-0.42334 1.15711,-0.57856 0.74789,-0.16933 1.72156,-0.16933 h 0.71967 v -0.32456 q 0,-0.46566 -0.16934,-0.90311 -0.15522,-0.45155 -0.52211,-0.73377 -0.35278,-0.29634 -0.97366,-0.29634 -0.46567,0 -0.762,0.0988 -0.29634,0.0988 -0.46567,0.21167 -0.16933,0.0988 -0.28222,0.0988 -0.16934,0 -0.28222,-0.16933 -0.0988,-0.16933 -0.0988,-0.31044 0,-0.19756 0.29633,-0.35278 0.29633,-0.16933 0.73378,-0.26811 0.45155,-0.11289 0.889,-0.11289 0.94544,0 1.49577,0.39511 0.56445,0.381 0.80434,1.00189 0.254,0.62089 0.254,1.32644 v 3.66889 q 0,0.15522 -0.127,0.26811 -0.11289,0.0988 -0.32456,0.0988 -0.16933,0 -0.31044,-0.0988 -0.127,-0.11289 -0.127,-0.26811 v -0.62089 q -0.35278,0.42333 -0.87489,0.762 -0.52211,0.32455 -1.24178,0.32455 z m 0.22578,-0.77611 q 0.46567,0 0.889,-0.23989 0.42333,-0.23988 0.69144,-0.57855 0.28223,-0.35278 0.28223,-0.66322 v -0.90311 h -0.59267 q -0.635,0 -1.21356,0.0847 -0.56444,0.0706 -0.93133,0.32456 -0.35278,0.254 -0.35278,0.80433 0,0.60678 0.35278,0.889 0.36689,0.28222 0.87489,0.28222 z" inkscape:connector-curvature="0"></path><path id="path866" style="font-style:normal;font-variant:normal;font-weight:normal;font-stretch:normal;font-size:14.1111002px;font-family:Dosis;-inkscape-font-specification:'Dosis, @wght=400';font-variant-ligatures:normal;font-variant-caps:normal;font-variant-numeric:normal;fill:#272932;fill-opacity:1;stroke-width:0.29296201" d="m 331.45508,119.80891 q -0.64911,0 -1.22767,-0.36688 -0.57855,-0.381 -0.93133,-1.00189 -0.33867,-0.62089 -0.33867,-1.31233 v -1.524 q 0,-0.73378 0.33867,-1.32645 0.35278,-0.60677 0.93133,-0.95955 0.57856,-0.36689 1.27,-0.36689 0.69145,0 1.15711,0.33867 0.47978,0.32455 0.70556,0.73377 v -4.72722 q 0,-0.16933 0.14111,-0.254 0.14111,-0.0988 0.32455,-0.0988 0.21167,0 0.32456,0.0988 0.127,0.0847 0.127,0.254 v 10.04711 q 0,0.14111 -0.127,0.254 -0.11289,0.11289 -0.32456,0.11289 -0.16933,0 -0.31044,-0.11289 -0.127,-0.11289 -0.127,-0.254 v -0.62089 q -0.21167,0.43744 -0.74789,0.762 -0.52211,0.32455 -1.18533,0.32455 z m 0.16933,-0.84666 q 0.508,0 0.889,-0.254 0.39511,-0.26811 0.62089,-0.59267 0.22578,-0.33866 0.22578,-0.55033 v -1.96144 q 0,-0.57856 -0.254,-0.97367 -0.254,-0.39511 -0.64911,-0.60678 -0.39511,-0.22577 -0.81845,-0.22577 -0.47977,0 -0.87489,0.26811 -0.39511,0.254 -0.635,0.66322 -0.23988,0.40922 -0.23988,0.87489 v 1.524 q 0,0.46566 0.23988,0.88899 0.23989,0.42334 0.635,0.69145 0.39512,0.254 0.86078,0.254 z" inkscape:connector-curvature="0"></path><path id="path868" style="font-style:normal;font-variant:normal;font-weight:normal;font-stretch:normal;font-size:14.1111002px;font-family:Dosis;-inkscape-font-specification:'Dosis, @wght=400';font-variant-ligatures:normal;font-variant-caps:normal;font-variant-numeric:normal;fill:#272932;fill-opacity:1;stroke-width:0.29296201" d="m 338.83518,119.80891 q -0.889,0 -1.58045,-0.33866 -0.67733,-0.33867 -1.07244,-0.93133 -0.381,-0.60678 -0.381,-1.41111 v -1.56634 q 0,-0.70555 0.36689,-1.29822 0.36689,-0.60678 0.97366,-0.95955 0.62089,-0.35278 1.35467,-0.35278 0.70555,0 1.29822,0.33867 0.60678,0.32455 0.97367,0.90311 0.36689,0.57855 0.36689,1.34055 0,0.53622 -0.18345,0.77611 -0.18344,0.23989 -0.46566,0.29633 -0.26812,0.0423 -0.57856,0.0423 h -3.18911 v 0.52211 q 0,0.84666 0.60678,1.34055 0.60678,0.49389 1.53811,0.49389 0.56444,0 0.87489,-0.14111 0.31044,-0.14111 0.47977,-0.28222 0.18345,-0.14111 0.33867,-0.14111 0.11289,0 0.19756,0.0847 0.0988,0.0706 0.14111,0.16934 0.0564,0.0988 0.0564,0.18344 0,0.15522 -0.254,0.381 -0.254,0.22578 -0.73378,0.39511 -0.47977,0.15522 -1.12888,0.15522 z m -2.11667,-3.83822 h 2.82222 q 0.42333,0 0.56445,-0.0847 0.14111,-0.0988 0.14111,-0.39511 0,-0.45156 -0.22578,-0.84667 -0.22578,-0.40922 -0.62089,-0.66322 -0.39511,-0.26811 -0.91722,-0.26811 -0.47978,0 -0.889,0.23989 -0.39511,0.23989 -0.635,0.62089 -0.23989,0.381 -0.23989,0.86077 z" inkscape:connector-curvature="0"></path><path id="path870" style="font-style:normal;font-variant:normal;font-weight:normal;font-stretch:normal;font-size:14.1111002px;font-family:Dosis;-inkscape-font-specification:'Dosis, @wght=400';font-variant-ligatures:normal;font-variant-caps:normal;font-variant-numeric:normal;fill:#272932;fill-opacity:1;stroke-width:0.29296201" d="m 347.14658,119.80891 q -0.66323,0 -1.17123,-0.16933 -0.49388,-0.16933 -0.77611,-0.39511 -0.26811,-0.23989 -0.26811,-0.45156 0,-0.0988 0.0423,-0.18344 0.0423,-0.0988 0.11288,-0.16933 0.0847,-0.0706 0.16934,-0.0706 0.15522,0 0.33866,0.16934 0.19756,0.15522 0.53623,0.32455 0.35277,0.16933 0.98777,0.16933 0.80434,0 1.12889,-0.29633 0.32456,-0.31044 0.32456,-0.70555 0,-0.46567 -0.254,-0.71967 -0.23989,-0.26811 -0.64911,-0.40922 -0.39511,-0.14111 -0.84667,-0.26811 -0.43744,-0.127 -0.84667,-0.31045 -0.39511,-0.18344 -0.64911,-0.52211 -0.23989,-0.35278 -0.23989,-0.93133 0,-0.45156 0.22578,-0.889 0.22578,-0.43744 0.70556,-0.73378 0.49389,-0.29633 1.29822,-0.29633 0.46566,0 0.90311,0.0988 0.43744,0.0988 0.70555,0.26811 0.28223,0.15522 0.28223,0.33866 0,0.0564 -0.0564,0.18345 -0.0423,0.11289 -0.127,0.19755 -0.0847,0.0847 -0.19755,0.0847 -0.11289,0 -0.31045,-0.0988 -0.18344,-0.0988 -0.47978,-0.19755 -0.29633,-0.0988 -0.70555,-0.0988 -0.508,0 -0.81844,0.18344 -0.31045,0.18345 -0.45156,0.43745 -0.14111,0.254 -0.14111,0.49389 0,0.39511 0.254,0.60677 0.254,0.21167 0.64911,0.35278 0.40922,0.127 0.84667,0.254 0.45155,0.11289 0.84666,0.32456 0.40922,0.21166 0.64911,0.59266 0.254,0.381 0.254,1.016 0,0.83256 -0.59266,1.32645 -0.59267,0.49388 -1.67922,0.49388 z" inkscape:connector-curvature="0"></path><path id="path872" style="font-style:normal;font-variant:normal;font-weight:normal;font-stretch:normal;font-size:14.1111002px;font-family:Dosis;-inkscape-font-specification:'Dosis, @wght=400';font-variant-ligatures:normal;font-variant-caps:normal;font-variant-numeric:normal;fill:#272932;fill-opacity:1;stroke-width:0.29296201" d="m 351.23878,119.71014 q -0.18344,0 -0.32455,-0.11289 -0.127,-0.11289 -0.127,-0.254 v -5.95489 q 0,-0.16933 0.127,-0.254 0.14111,-0.0988 0.32455,-0.0988 0.19756,0 0.32456,0.0988 0.14111,0.0847 0.14111,0.254 v 5.95489 q 0,0.14111 -0.14111,0.254 -0.127,0.11289 -0.32456,0.11289 z m 0,-8.65011 q -0.254,0 -0.43744,-0.16933 -0.18345,-0.18345 -0.18345,-0.42333 0,-0.23989 0.18345,-0.40923 0.18344,-0.16933 0.43744,-0.16933 0.26811,0 0.43745,0.16933 0.18344,0.16934 0.18344,0.40923 0,0.23988 -0.18344,0.42333 -0.16934,0.16933 -0.43745,0.16933 z" inkscape:connector-curvature="0"></path><path id="path874" style="font-style:normal;font-variant:normal;font-weight:normal;font-stretch:normal;font-size:14.1111002px;font-family:Dosis;-inkscape-font-specification:'Dosis, @wght=400';font-variant-ligatures:normal;font-variant-caps:normal;font-variant-numeric:normal;fill:#272932;fill-opacity:1;stroke-width:0.29296201" d="m 353.90577,119.71014 q -0.18345,0 -0.32456,-0.11289 -0.127,-0.11289 -0.127,-0.254 v -5.95489 q 0,-0.16933 0.127,-0.254 0.14111,-0.0988 0.32456,-0.0988 0.18344,0 0.31044,0.0988 0.127,0.0847 0.127,0.254 v 0.635 q 0.23989,-0.40922 0.70556,-0.73377 0.47977,-0.33867 1.17122,-0.33867 0.70555,0 1.22766,0.39511 0.52211,0.39511 0.77611,1.016 0.36689,-0.71967 0.94545,-1.05833 0.59266,-0.35278 1.19944,-0.35278 0.60678,0 1.143,0.31044 0.55033,0.31045 0.889,0.90311 0.33866,0.57856 0.33866,1.43934 v 3.73944 q 0,0.14111 -0.14111,0.254 -0.127,0.11289 -0.32455,0.11289 -0.18345,0 -0.32456,-0.11289 -0.127,-0.11289 -0.127,-0.254 v -3.73944 q 0,-0.60678 -0.23989,-1.00189 -0.23988,-0.39511 -0.62088,-0.59267 -0.36689,-0.21166 -0.74789,-0.21166 -0.40922,0 -0.79022,0.21166 -0.36689,0.21167 -0.62089,0.60678 -0.23989,0.381 -0.23989,0.91722 v 3.82411 q 0,0.18344 -0.15522,0.26811 -0.14111,0.0847 -0.31045,0.0847 -0.15522,0 -0.31044,-0.0847 -0.14111,-0.0847 -0.14111,-0.26811 v -3.81 q 0,-0.508 -0.22578,-0.90311 -0.22578,-0.39511 -0.59267,-0.62089 -0.35277,-0.22577 -0.79022,-0.22577 -0.40922,0 -0.79022,0.21166 -0.381,0.21167 -0.635,0.62089 -0.23989,0.39511 -0.23989,0.97367 v 3.73944 q 0,0.14111 -0.14111,0.254 -0.127,0.11289 -0.32455,0.11289 z" inkscape:connector-curvature="0"></path><path id="path876" style="font-style:normal;font-variant:normal;font-weight:normal;font-stretch:normal;font-size:14.1111002px;font-family:Dosis;-inkscape-font-specification:'Dosis, @wght=400';font-variant-ligatures:normal;font-variant-caps:normal;font-variant-numeric:normal;fill:#272932;fill-opacity:1;stroke-width:0.29296201" d="m 364.91242,122.98391 q -0.18345,0 -0.32456,-0.11289 -0.127,-0.11289 -0.127,-0.254 v -9.22866 q 0,-0.16933 0.127,-0.254 0.14111,-0.0988 0.32456,-0.0988 0.18344,0 0.31044,0.0988 0.127,0.0847 0.127,0.254 v 0.635 q 0.23989,-0.40922 0.71967,-0.73377 0.47977,-0.33867 1.17122,-0.33867 0.70555,0 1.27,0.36689 0.57855,0.35278 0.91722,0.95955 0.35278,0.59267 0.35278,1.32645 v 1.524 q 0,0.69144 -0.35278,1.31233 -0.33867,0.62089 -0.90311,1.00189 -0.56445,0.36688 -1.24178,0.36688 -0.64911,0 -1.15711,-0.32455 -0.508,-0.32456 -0.74789,-0.762 v 3.89466 q 0,0.14111 -0.14111,0.254 -0.127,0.11289 -0.32455,0.11289 z m 2.20133,-4.02166 q 0.46566,0 0.86077,-0.254 0.39512,-0.26811 0.635,-0.69145 0.254,-0.42333 0.254,-0.88899 v -1.524 q 0,-0.46567 -0.254,-0.87489 -0.23988,-0.40922 -0.635,-0.66322 -0.39511,-0.26811 -0.88899,-0.26811 -0.42334,0 -0.81845,0.22577 -0.381,0.21167 -0.635,0.60678 -0.254,0.39511 -0.254,0.97367 v 1.96144 q 0,0.21167 0.22578,0.55033 0.22578,0.32456 0.62089,0.59267 0.39511,0.254 0.889,0.254 z" inkscape:connector-curvature="0"></path><path id="path878" style="font-style:normal;font-variant:normal;font-weight:normal;font-stretch:normal;font-size:14.1111002px;font-family:Dosis;-inkscape-font-specification:'Dosis, @wght=400';font-variant-ligatures:normal;font-variant-caps:normal;font-variant-numeric:normal;fill:#272932;fill-opacity:1;stroke-width:0.29296201" d="m 371.85506,119.71014 q -0.18344,0 -0.32455,-0.11289 -0.127,-0.11289 -0.127,-0.254 v -10.04711 q 0,-0.16933 0.127,-0.254 0.14111,-0.0988 0.32455,-0.0988 0.19756,0 0.32456,0.0988 0.14111,0.0847 0.14111,0.254 v 10.04711 q 0,0.14111 -0.14111,0.254 -0.127,0.11289 -0.32456,0.11289 z" inkscape:connector-curvature="0"></path><path id="path880" style="font-style:normal;font-variant:normal;font-weight:normal;font-stretch:normal;font-size:14.1111002px;font-family:Dosis;-inkscape-font-specification:'Dosis, @wght=400';font-variant-ligatures:normal;font-variant-caps:normal;font-variant-numeric:normal;fill:#272932;fill-opacity:1;stroke-width:0.29296201" d="m 377.00559,119.80891 q -0.889,0 -1.58044,-0.33866 -0.67733,-0.33867 -1.07244,-0.93133 -0.381,-0.60678 -0.381,-1.41111 v -1.56634 q 0,-0.70555 0.36689,-1.29822 0.36688,-0.60678 0.97366,-0.95955 0.62089,-0.35278 1.35467,-0.35278 0.70555,0 1.29822,0.33867 0.60678,0.32455 0.97366,0.90311 0.36689,0.57855 0.36689,1.34055 0,0.53622 -0.18344,0.77611 -0.18345,0.23989 -0.46567,0.29633 -0.26811,0.0423 -0.57855,0.0423 h -3.18911 v 0.52211 q 0,0.84666 0.60678,1.34055 0.60677,0.49389 1.53811,0.49389 0.56444,0 0.87488,-0.14111 0.31045,-0.14111 0.47978,-0.28222 0.18345,-0.14111 0.33867,-0.14111 0.11289,0 0.19755,0.0847 0.0988,0.0706 0.14111,0.16934 0.0564,0.0988 0.0564,0.18344 0,0.15522 -0.254,0.381 -0.254,0.22578 -0.73378,0.39511 -0.47978,0.15522 -1.12889,0.15522 z m -2.11666,-3.83822 h 2.82222 q 0.42333,0 0.56444,-0.0847 0.14111,-0.0988 0.14111,-0.39511 0,-0.45156 -0.22577,-0.84667 -0.22578,-0.40922 -0.62089,-0.66322 -0.39511,-0.26811 -0.91722,-0.26811 -0.47978,0 -0.889,0.23989 -0.39511,0.23989 -0.635,0.62089 -0.23989,0.381 -0.23989,0.86077 z" inkscape:connector-curvature="0"></path></g></g></g></svg> 