<?xml version="1.0" encoding="UTF-8"?> <svg xmlns="http://www.w3.org/2000/svg" width="342" height="473" viewBox="0 0 342 473" fill="none"><path d="M27.0844 337.135C14.0198 306.288 -49.85 319.296 -90.4325 309.085C-133.817 297.61 -90.6353 186.918 -1.04857 128.855C88.5381 70.793 248.57 143.648 293.689 191.651C338.808 239.654 299.496 316.346 232.119 365.541C164.742 414.736 101.444 414.513 72.774 406.303C44.1036 398.093 40.149 367.982 27.0844 337.135Z" stroke="#D91744" stroke-width="10"></path><path d="M-21.8675 87.3202C-11.5175 74.1423 -32.6532 49.3179 -37.992 29.0783C-43.4546 7.30612 15.4564 -0.542202 62.5382 24.6526C109.62 49.8474 116.401 137.538 106.288 168.899C96.1736 200.261 53.087 201.585 15.2569 183.972C-22.5731 166.36 -37.7767 138.588 -41.1119 124.048C-44.4471 109.508 -32.2176 100.498 -21.8675 87.3202Z" stroke="#D91744" stroke-width="10"></path></svg> 