<?xml version="1.0" encoding="UTF-8"?> <svg xmlns="http://www.w3.org/2000/svg" width="48" height="49" viewBox="0 0 48 49" fill="none"><g clip-path="url(#clip0_203_1221)"><circle cx="24.2476" cy="27.2217" r="16.8247" fill="white"></circle><circle cx="24" cy="24.5" r="24" fill="white"></circle><path d="M20.5912 16.6831C22.5973 13.6073 27.111 12.582 32.1262 12.377C35.8374 14.1199 38.1444 16.6831 39.3481 21.7069C40.5517 26.7307 36.9408 30.8318 34.8344 32.5748C32.728 34.3177 26.7097 36.6758 21.4939 31.447C16.2781 26.2181 18.5851 19.7589 20.5912 16.6831Z" fill="#D91744"></path><path d="M29.759 24.8169L28.2849 22.5321L8.32361 34.0732L11.3717 38.4923L29.759 24.8169Z" fill="#0737D0"></path><path d="M22.073 20.7218L21.3683 19.6296L11.8259 25.1467L13.283 27.2592L22.073 20.7218Z" fill="#487CFF"></path></g><defs><clipPath id="clip0_203_1221"><rect width="48" height="48" fill="white" transform="translate(0 0.5)"></rect></clipPath></defs></svg> 