<?xml version="1.0" encoding="UTF-8"?> <svg xmlns="http://www.w3.org/2000/svg" width="496" height="496" viewBox="0 0 496 496" fill="none"><g clip-path="url(#clip0_213_1601)"><path d="M205.992 123.685C241.223 125.666 272.66 158.974 300.01 200.556C304.876 240.599 295.894 272.732 261.297 307.539C226.7 342.346 174.931 331.756 150.001 322.4C125.07 313.045 75.1138 273.484 90.8257 203.605C106.538 133.727 170.762 121.704 205.992 123.685Z" fill="#0737D0"></path><path d="M130.617 176.721C142.591 159.041 169.531 153.147 199.464 151.969C221.615 161.988 235.384 176.721 242.568 205.599C249.752 234.476 228.2 258.05 215.628 268.069C203.056 278.087 167.136 291.642 136.005 261.586C104.875 231.53 118.644 194.401 130.617 176.721Z" fill="#487CFF"></path><path d="M169.324 184.963C172.246 180.682 178.822 179.254 186.129 178.969C191.535 181.395 194.896 184.963 196.65 191.957C198.404 198.951 193.143 204.66 190.074 207.087C187.005 209.513 178.238 212.796 170.639 205.517C163.04 198.237 166.401 189.245 169.324 184.963Z" fill="white"></path><path d="M236.571 345.961L233.538 340.574L273.727 322.271L277.683 332.02L236.571 345.961Z" fill="#FCB73D" stroke="#FCB73D" stroke-width="3"></path><path d="M105.181 96.2679C68.0326 154.408 79.6497 207.365 148.388 253.012C216.72 292.34 283.43 306.387 333.871 264.406C384.311 222.425 425.268 164.151 381.194 96.2677C337.12 28.3845 325.52 52.3408 246.65 32.3913C205.577 22.0023 142.33 38.1278 105.181 96.2679Z" stroke="#0737D0" stroke-width="5"></path><path d="M62.9871 119.844C-10.3403 192.444 -10.8159 273.526 74.4487 362.74C161.201 442.599 253.905 485.043 341.307 440.392C428.709 395.741 507.636 324.199 465.671 210.66C423.705 97.1216 398.9 128.256 290.398 73.2001C233.894 44.5291 136.314 47.2449 62.9871 119.844Z" stroke="#D1DEFF" stroke-width="5"></path></g><defs><clipPath id="clip0_213_1601"><rect width="496" height="496" fill="white"></rect></clipPath></defs></svg> 