<?xml version="1.0" encoding="UTF-8"?> <svg xmlns="http://www.w3.org/2000/svg" width="740" height="128" fill="none"><path fill="#fff" d="M0 0h740v128H0z"></path><path d="M70.852 72.316c-1.886.517-4.086.77-6.599.77-2.512 0-4.712-.253-6.599-.77a14.407 14.407 0 01-5.156-2.593c-1.554-1.215-2.734-2.926-3.552-5.134-.817-2.208-1.23-4.882-1.23-8.021V40.1c0-.78.352-1.165 1.069-1.165h2.371c.807 0 1.21.385 1.21 1.165v16.468c0 2.36.303 4.355.909 5.975.605 1.62 1.483 2.856 2.623 3.707 1.15.85 2.382 1.458 3.724 1.823 1.332.354 2.886.536 4.651.536 1.766 0 3.32-.182 4.652-.536a10.813 10.813 0 003.724-1.823c1.15-.851 2.018-2.097 2.623-3.707.605-1.61.908-3.605.908-5.975V40.1c0-.78.404-1.165 1.211-1.165h2.371c.717 0 1.07.385 1.07 1.165v16.468c0 3.14-.414 5.813-1.231 8.02-.817 2.209-2.008 3.92-3.552 5.135-1.594 1.216-3.31 2.087-5.197 2.593zM123.565 71.597L98.228 45.751v25.522c0 .78-.404 1.165-1.211 1.165h-2.371c-.717 0-1.07-.385-1.07-1.165V40.1c0-.78.353-1.165 1.07-1.165h2.512c.616 0 1.21.284 1.766.841l25.337 25.846V40.1c0-.78.403-1.165 1.211-1.165h2.371c.716 0 1.07.385 1.07 1.165v31.173c0 .78-.354 1.165-1.07 1.165h-2.513c-.625 0-1.21-.284-1.765-.841zM142.999 72.438c-.717 0-1.07-.385-1.07-1.165V40.1c0-.78.353-1.165 1.07-1.165h29.887c.808 0 1.211.385 1.211 1.165v2.096c0 .78-.403 1.165-1.211 1.165h-26.315v9.753h18.879c.807 0 1.211.385 1.211 1.165v2.096c0 .78-.404 1.165-1.211 1.165h-18.879v10.452h26.315c.808 0 1.211.384 1.211 1.164v2.097c0 .78-.403 1.164-1.211 1.164h-29.887v.02zM202.36 72.438c-.716 0-1.069-.385-1.069-1.165V40.1c0-.78.353-1.165 1.069-1.165h21.059c4.056 0 7.094.871 9.112 2.613s3.017 4.244 3.017 7.515c0 2.583-.787 4.8-2.351 6.654-1.564 1.853-3.855 3.028-6.852 3.524l10.363 11.475c.313.314.464.608.464.881 0 .557-.323.84-.978.84h-3.3c-.777 0-1.382-.263-1.816-.79l-10.827-12.173h-14.319v11.799c0 .78-.403 1.165-1.21 1.165h-2.362zm21.2-29.067h-17.617v11.667h17.617c2.109 0 3.815-.536 5.136-1.61 1.312-1.073 1.978-2.532 1.978-4.365 0-1.924-.666-3.362-1.998-4.294-1.342-.932-3.047-1.398-5.116-1.398zM250.471 43.2c3.754-3.282 8.365-4.923 13.854-4.923 5.49 0 10.111 1.64 13.875 4.922 3.763 3.282 5.65 7.444 5.65 12.477 0 5.044-1.887 9.196-5.65 12.478-3.764 3.281-8.395 4.922-13.875 4.922-5.479 0-10.1-1.641-13.854-4.922-3.753-3.282-5.62-7.444-5.62-12.478 0-5.033 1.867-9.185 5.62-12.477zm13.854-.487c-4.086 0-7.547 1.225-10.362 3.666-2.826 2.441-4.228 5.55-4.228 9.308 0 3.767 1.412 6.866 4.228 9.307 2.825 2.44 6.276 3.666 10.362 3.666 4.127 0 7.599-1.225 10.414-3.666 2.815-2.44 4.228-5.54 4.228-9.307 0-3.768-1.413-6.867-4.228-9.308-2.826-2.44-6.297-3.666-10.414-3.666zM295.141 72.438c-.716 0-1.069-.385-1.069-1.165V40.1c0-.78.353-1.165 1.069-1.165h23.017c3.097 0 5.59.76 7.456 2.29 1.877 1.529 2.816 3.635 2.816 6.35 0 3.17-1.252 5.64-3.764 7.423 1.241.557 2.351 1.509 3.35 2.846.989 1.337 1.483 3.038 1.483 5.084 0 2.734-.928 5.013-2.785 6.816-1.856 1.802-4.45 2.704-7.759 2.704h-23.814v-.01zm22.643-29.067h-19.06v9.753h19.06c1.918 0 3.36-.456 4.319-1.357.959-.901 1.443-2.096 1.443-3.595 0-1.62-.525-2.826-1.584-3.616-1.05-.79-2.442-1.185-4.178-1.185zm1.817 14.179h-20.877v10.452h20.544c1.705 0 3.017-.517 3.955-1.54.928-1.023 1.393-2.268 1.393-3.737 0-1.519-.485-2.765-1.464-3.737-.978-.952-2.159-1.438-3.551-1.438zM342.183 72.438c-.717 0-1.07-.385-1.07-1.165V40.1c0-.78.353-1.165 1.07-1.165h29.888c.807 0 1.21.385 1.21 1.165v2.096c0 .78-.403 1.165-1.21 1.165h-26.316v9.753h18.879c.807 0 1.211.385 1.211 1.165v2.096c0 .78-.404 1.165-1.211 1.165h-18.879v10.452h26.316c.807 0 1.21.384 1.21 1.164v2.097c0 .78-.403 1.164-1.21 1.164h-29.888v.02zM406.822 55.079c0 1.367-.505 2.552-1.514 3.545-1.009.992-2.209 1.488-3.602 1.488-1.392 0-2.583-.496-3.582-1.488-.989-.993-1.483-2.178-1.483-3.545 0-1.398.494-2.603 1.483-3.616.989-1.012 2.19-1.519 3.582-1.519 1.393 0 2.593.507 3.602 1.52 1.009 1.012 1.514 2.217 1.514 3.615zM454.499 72.316c-1.887.517-4.087.77-6.599.77-2.513 0-4.712-.253-6.599-.77a14.399 14.399 0 01-5.156-2.593c-1.554-1.215-2.735-2.926-3.552-5.134-.818-2.208-1.231-4.882-1.231-8.021V40.1c0-.78.353-1.165 1.069-1.165h2.372c.807 0 1.21.385 1.21 1.165v16.468c0 2.36.303 4.355.909 5.975.605 1.62 1.483 2.856 2.623 3.707 1.15.85 2.381 1.458 3.723 1.823 1.332.354 2.886.536 4.652.536s3.32-.182 4.652-.536a10.809 10.809 0 003.723-1.823c1.15-.851 2.018-2.097 2.624-3.707.605-1.61.908-3.605.908-5.975V40.1c0-.78.403-1.165 1.211-1.165h2.371c.716 0 1.069.385 1.069 1.165v16.468c0 3.14-.413 5.813-1.231 8.02-.817 2.209-2.008 3.92-3.551 5.135-1.585 1.216-3.31 2.087-5.197 2.593zM507.211 71.597l-25.337-25.846v25.522c0 .78-.403 1.165-1.211 1.165h-2.371c-.716 0-1.069-.385-1.069-1.165V40.1c0-.78.353-1.165 1.069-1.165h2.513c.615 0 1.21.284 1.765.841l25.337 25.846V40.1c0-.78.404-1.165 1.211-1.165h2.371c.717 0 1.07.385 1.07 1.165v31.173c0 .78-.353 1.165-1.07 1.165h-2.512c-.616 0-1.201-.284-1.766-.841zM543.567 63.292c3.38 3.576 7.79 5.368 13.249 5.368 3.158 0 5.882-.537 8.153-1.61 2.28-1.074 3.42-2.593 3.42-4.548 0-.749-.192-1.387-.585-1.914a4.555 4.555 0 00-1.423-1.286c-.555-.324-1.392-.618-2.512-.86a30.4 30.4 0 00-3.048-.538c-.918-.11-2.189-.243-3.834-.395a62.692 62.692 0 01-3.653-.395 77.344 77.344 0 01-3.511-.607c-1.362-.263-2.492-.608-3.39-1.023a16.114 16.114 0 01-2.624-1.54 5.848 5.848 0 01-1.927-2.288c-.434-.922-.646-1.955-.646-3.1 0-2.987 1.392-5.438 4.187-7.372 2.785-1.924 6.559-2.897 11.292-2.897 2.109 0 4.086.203 5.953.608 1.857.405 3.39.911 4.601 1.52 1.211.607 2.119 1.113 2.725 1.518.605.405 1.079.76 1.422 1.074.555.526.838 1.073.838 1.63 0 .81-.515 1.54-1.534 2.198l-.646.415a1.304 1.304 0 01-.646.182c-.343 0-.686-.172-1.019-.516-1.089-1.084-2.653-2.056-4.692-2.917-2.048-.85-4.419-1.286-7.113-1.286-2.886 0-5.348.496-7.397 1.489-2.048.992-3.067 2.33-3.067 4.01 0 .871.282 1.6.858 2.198.575.598 1.453 1.064 2.653 1.428 1.191.355 2.392.628 3.603.82 1.21.183 2.744.355 4.601.517 5.55.466 9.505 1.347 11.876 2.633 2.371 1.286 3.552 3.352 3.552 6.178 0 2.39-.767 4.446-2.301 6.158-1.533 1.711-3.521 2.967-5.973 3.757s-5.197 1.185-8.234 1.185c-2.351 0-4.551-.243-6.599-.72-2.048-.475-3.723-1.093-5.025-1.843-1.302-.749-2.29-1.367-2.956-1.863-.666-.496-1.201-.962-1.605-1.398-.555-.587-.837-1.154-.837-1.68 0-.78.514-1.49 1.533-2.148l.656-.415c.253-.152.475-.233.697-.233.282-.01.585.162.928.506zM587.026 43.2c3.754-3.282 8.365-4.923 13.854-4.923 5.489 0 10.111 1.64 13.875 4.922 3.763 3.282 5.65 7.444 5.65 12.477 0 5.044-1.887 9.196-5.65 12.478-3.764 3.281-8.396 4.922-13.875 4.922-5.479 0-10.1-1.641-13.854-4.922-3.754-3.282-5.62-7.444-5.62-12.478 0-5.033 1.877-9.185 5.62-12.477zm13.854-.487c-4.086 0-7.547 1.225-10.363 3.666-2.825 2.441-4.227 5.55-4.227 9.308 0 3.767 1.412 6.866 4.227 9.307 2.826 2.44 6.277 3.666 10.363 3.666 4.127 0 7.598-1.225 10.413-3.666 2.816-2.44 4.228-5.54 4.228-9.307 0-3.768-1.412-6.867-4.228-9.308-2.815-2.44-6.286-3.666-10.413-3.666zM631.706 72.438c-.716 0-1.069-.385-1.069-1.165V40.1c0-.78.353-1.165 1.069-1.165h2.372c.807 0 1.21.385 1.21 1.165v31.173c0 .78-.403 1.165-1.21 1.165h-2.372zM649.365 72.438c-.717 0-1.07-.385-1.07-1.165V40.1c0-.78.353-1.165 1.07-1.165h21.058c4.056 0 7.094.871 9.112 2.613s3.017 4.244 3.017 7.515c0 2.583-.787 4.8-2.351 6.654-1.564 1.853-3.855 3.028-6.852 3.524l10.363 11.475c.313.314.464.608.464.881 0 .557-.323.84-.978.84h-3.3c-.777 0-1.382-.263-1.816-.79l-10.827-12.173h-14.318v11.799c0 .78-.404 1.165-1.211 1.165h-2.361zm21.199-29.067h-17.617v11.667h17.617c2.109 0 3.815-.536 5.136-1.61 1.312-1.073 1.978-2.532 1.978-4.365 0-1.924-.666-3.362-1.998-4.294-1.332-.932-3.037-1.398-5.116-1.398zM583.444 92.166v4.416h-1.695V84.307h3.491c2.503 0 4.369 1.297 4.369 3.828 0 2.563-1.937 4.031-4.51 4.031h-1.655zm-.02-1.519h1.675c1.665 0 2.795-.932 2.795-2.491 0-1.418-1.07-2.33-2.704-2.33h-1.766v4.821zM613.362 93.432h-6.397l-1.413 3.16h-1.746l5.702-12.346h1.553l5.49 12.346h-1.817l-1.372-3.16zm-3.148-7.261l-2.583 5.772h5.085l-2.502-5.772zM635.833 91.68h-1.332v4.912h-1.695V84.307h3.562c2.291 0 4.107 1.246 4.107 3.626 0 1.722-1.171 2.998-2.846 3.453l4.612 5.196h-2.119l-4.289-4.902zm-1.372-1.489h1.766c1.463 0 2.533-.911 2.533-2.248 0-1.317-1.05-2.127-2.442-2.127h-1.857v4.375zM657.961 84.307h1.696v12.285h-1.696V84.307zM680.382 84.105c1.403 0 2.362.385 3.219.931v1.894h-.03c-.949-.699-2.048-1.245-3.249-1.245-1.241 0-2.028.617-2.028 1.6 0 1.002.645 1.478 2.643 2.39 2.099.952 3.179 1.934 3.179 3.646 0 2.106-1.665 3.494-3.966 3.494a5.9 5.9 0 01-3.582-1.215l-.403-2.28.03-.02c1.14 1.074 2.654 1.935 4.036 1.935 1.292 0 2.24-.648 2.24-1.772 0-1.033-.807-1.58-2.634-2.4-1.907-.862-3.158-1.733-3.158-3.616-.02-2.046 1.504-3.342 3.703-3.342z" fill="#000000"></path></svg> 